<?xml version="1.0" encoding="UTF-8" standalone="no"?>
<svg
   xmlns:dc="http://purl.org/dc/elements/1.1/"
   xmlns:cc="http://creativecommons.org/ns#"
   xmlns:rdf="http://www.w3.org/1999/02/22-rdf-syntax-ns#"
   xmlns:svg="http://www.w3.org/2000/svg"
   xmlns="http://www.w3.org/2000/svg"
   xmlns:xlink="http://www.w3.org/1999/xlink"
   xmlns:sodipodi="http://sodipodi.sourceforge.net/DTD/sodipodi-0.dtd"
   xmlns:inkscape="http://www.inkscape.org/namespaces/inkscape"
   version="1.1"
   id="Ñëîé_2"
   x="0px"
   y="0px"
   viewBox="0 0 2100.0001 2100.0001"
   xml:space="preserve"
   sodipodi:docname="1.svg"
   width="2100"
   height="2100"
   inkscape:version="0.92.4 (5da689c313, 2019-01-14)"><metadata
   id="metadata249"><rdf:RDF><cc:Work
       rdf:about=""><dc:format>image/svg+xml</dc:format><dc:type
         rdf:resource="http://purl.org/dc/dcmitype/StillImage" /><dc:title /></cc:Work></rdf:RDF></metadata><defs
   id="defs247"><clipPath
     id="SVGID_2_-3"><use
       height="100%"
       width="100%"
       y="0"
       x="0"
       id="use41-6"
       style="overflow:visible"
       xlink:href="#SVGID_1_-2" /></clipPath><clipPath
     id="SVGID_4_-7"><use
       height="100%"
       width="100%"
       y="0"
       x="0"
       id="use67-5"
       style="overflow:visible"
       xlink:href="#SVGID_3_-9" /></clipPath><clipPath
     id="SVGID_6_-3"><use
       height="100%"
       width="100%"
       y="0"
       x="0"
       id="use87-5"
       style="overflow:visible"
       xlink:href="#SVGID_5_-2" /></clipPath><clipPath
     id="SVGID_8_-6"><use
       height="100%"
       width="100%"
       y="0"
       x="0"
       id="use115-2"
       style="overflow:visible"
       xlink:href="#SVGID_7_-1" /></clipPath><clipPath
     id="SVGID_10_-9"><use
       height="100%"
       width="100%"
       y="0"
       x="0"
       id="use133-1"
       style="overflow:visible"
       xlink:href="#SVGID_9_-5" /></clipPath><clipPath
     id="SVGID_12_-2"><use
       height="100%"
       width="100%"
       y="0"
       x="0"
       id="use151-7"
       style="overflow:visible"
       xlink:href="#SVGID_11_-3" /></clipPath><clipPath
     id="SVGID_14_-0"><use
       height="100%"
       width="100%"
       y="0"
       x="0"
       id="use179-9"
       style="overflow:visible"
       xlink:href="#SVGID_13_-8" /></clipPath><clipPath
     id="SVGID_16_-3"><use
       height="100%"
       width="100%"
       y="0"
       x="0"
       id="use207-6"
       style="overflow:visible"
       xlink:href="#SVGID_15_-9" /></clipPath><path
     d="m 379.99,246.47 -17.11,31.86 c -6.49,-1.62 -16.74,-2.35 -26.27,-1.43 l 17.11,-31.86 c 9.53,-0.92 19.77,-0.19 26.27,1.43 z"
     class="st3"
     id="SVGID_1_-2"
     inkscape:connector-curvature="0"
     style="enable-background:new" /><path
     d="m 337.49,295.69 17.11,-31.86 c 0.71,-1.33 3.45,-2.27 7.22,-2.86 8,-1.27 18.51,0.3 23.85,1.66 l -17.11,31.86 c -5.34,-1.36 -15.85,-2.93 -23.85,-1.66 -3.77,0.59 -6.5,1.53 -7.22,2.86 z"
     class="st3"
     id="SVGID_3_-9"
     inkscape:connector-curvature="0"
     style="enable-background:new" /><path
     d="M 414.36,301.14 397.24,333 c 2.56,-4.77 1.6,-10.14 -1.94,-15.11 -6.69,-9.38 -17.08,-14.64 -40.88,-16.46 -12.66,-0.94 -15.06,-1.58 -16.66,-3.83 -0.51,-0.71 -0.57,-1.34 -0.27,-1.91 l 17.11,-31.86 c -0.3,0.56 -0.24,1.2 0.27,1.91 1.6,2.25 4.01,2.89 16.66,3.83 23.8,1.82 34.19,7.08 40.88,16.46 3.55,4.97 4.51,10.34 1.95,15.11 z"
     class="st3"
     id="SVGID_5_-2"
     inkscape:connector-curvature="0"
     style="enable-background:new" /><path
     d="m 308.46,289.33 17.11,-31.86 c 2.07,-3.86 6.66,-7.07 13.49,-9.37 l -17.11,31.86 c -6.83,2.3 -11.42,5.51 -13.49,9.37 z"
     class="st3"
     id="SVGID_7_-1"
     inkscape:connector-curvature="0"
     style="enable-background:new" /><path
     d="M 414.36,301.14 397.24,333 c -2.07,3.85 -6.44,7.31 -13.62,9.83 l 17.11,-31.86 c 7.18,-2.52 11.56,-5.98 13.63,-9.83 z"
     class="st3"
     id="SVGID_9_-5"
     inkscape:connector-curvature="0"
     style="enable-background:new" /><path
     d="m 383.64,293.85 -17.11,31.86 c 0.33,-0.61 0.22,-1.32 -0.38,-2.17 -1.13,-1.58 -3.33,-2.86 -15.16,-3.78 -22.36,-1.61 -33.28,-6.49 -40.44,-16.53 -3.66,-5.13 -4.25,-9.87 -2.08,-13.9 l 17.11,-31.86 c -2.17,4.03 -1.58,8.77 2.08,13.9 7.16,10.04 18.09,14.93 40.44,16.53 11.83,0.93 14.03,2.2 15.16,3.78 0.6,0.85 0.71,1.56 0.38,2.17 z"
     class="st3"
     id="SVGID_11_-3"
     inkscape:connector-curvature="0"
     style="enable-background:new" /><path
     d="m 383.64,293.85 -17.11,31.86 c -0.69,1.29 -3.34,2.12 -7.39,2.76 -8.14,1.29 -21.41,-0.28 -28.72,-2.36 l 17.11,-31.86 c 7.31,2.08 20.58,3.65 28.72,2.36 4.05,-0.64 6.7,-1.47 7.39,-2.76 z"
     class="st3"
     id="SVGID_13_-8"
     inkscape:connector-curvature="0"
     style="enable-background:new" /><path
     d="m 386.08,314.02 -17.11,31.86 c -10.99,1.16 -23.92,-0.18 -32.82,-2.88 l 17.11,-31.86 c 8.9,2.7 21.83,4.04 32.82,2.88 z"
     class="st3"
     id="SVGID_15_-9"
     inkscape:connector-curvature="0"
     style="enable-background:new" /></defs><sodipodi:namedview
   pagecolor="#ffffff"
   bordercolor="#666666"
   borderopacity="1"
   objecttolerance="10"
   gridtolerance="10"
   guidetolerance="10"
   inkscape:pageopacity="0"
   inkscape:pageshadow="2"
   inkscape:window-width="1600"
   inkscape:window-height="841"
   id="namedview245"
   showgrid="false"
   fit-margin-top="0"
   fit-margin-left="0"
   fit-margin-right="0"
   fit-margin-bottom="0"
   inkscape:zoom="0.22201233"
   inkscape:cx="911.28833"
   inkscape:cy="990.04738"
   inkscape:window-x="0"
   inkscape:window-y="27"
   inkscape:window-maximized="1"
   inkscape:current-layer="Ñëîé_2" />
<style
   type="text/css"
   id="style2">
	.st0{display:none;fill:#006E54;}
	.st1{display:none;}
	.st2{display:inline;fill:#FFFFFF;}
	.st3{enable-background:new    ;}
	.st4{clip-path:url(#SVGID_2_);enable-background:new    ;}
	.st5{fill:#999999;}
	.st6{fill:#949494;}
	.st7{fill:#909090;}
	.st8{fill:#858585;}
	.st9{fill:#36383D;}
	.st10{clip-path:url(#SVGID_4_);enable-background:new    ;}
	.st11{clip-path:url(#SVGID_6_);enable-background:new    ;}
	.st12{fill:#8A8A8A;}
	.st13{fill:#8F8F8F;}
	.st14{clip-path:url(#SVGID_8_);enable-background:new    ;}
	.st15{clip-path:url(#SVGID_10_);enable-background:new    ;}
	.st16{clip-path:url(#SVGID_12_);enable-background:new    ;}
	.st17{clip-path:url(#SVGID_14_);enable-background:new    ;}
	.st18{clip-path:url(#SVGID_16_);enable-background:new    ;}
	.st19{fill:#5A4E8C;}
	.st20{fill:#685AA3;}
	.st21{fill:#FFFFFF;}
</style>
<rect
   x="-224.24001"
   class="st0"
   width="708.65997"
   height="708.65997"
   id="rect4"
   y="1670.45"
   style="display:none;fill:#006e54" />
<g
   class="st1"
   id="g16"
   transform="translate(-224.24,1670.45)"
   style="display:none">
	<path
   class="st2"
   d="m 282.73,492.18 c -0.14,-5.95 -0.21,-12.54 -0.21,-20.83 h -0.21 c -1.7,6.8 -3.97,14.31 -5.81,20.34 l -5.17,17.29 h -10.7 l -4.25,-17.22 c -1.42,-5.88 -2.98,-13.32 -4.25,-20.41 h -0.14 c -0.28,7.3 -0.5,14.88 -0.71,20.83 l -0.71,17.79 h -12.61 l 2.69,-47.76 h 19.13 l 3.19,12.05 c 1.35,5.1 2.83,11.69 3.9,17.72 h 0.28 c 1.56,-6.02 3.33,-13.11 4.82,-17.86 l 3.76,-11.9 h 18.64 l 2.2,47.76 h -13.32 z"
   id="path6"
   inkscape:connector-curvature="0"
   style="display:inline;fill:#ffffff" />
	<path
   class="st2"
   d="m 328.36,510.81 c -15.73,0 -25.3,-10.56 -25.3,-24.31 0,-14.6 10.49,-25.16 26.15,-25.16 16.16,0 25.72,10.42 25.72,24.45 0,14.46 -10.13,25.01 -26.5,25.01 h -0.07 z m 0.71,-10.34 c 7.3,0 11.62,-6.09 11.62,-14.31 0,-8.22 -4.54,-14.46 -11.69,-14.46 -7.16,0 -11.69,6.24 -11.69,14.46 0,8.22 4.54,14.31 11.69,14.31 z"
   id="path8"
   inkscape:connector-curvature="0"
   style="display:inline;fill:#ffffff" />
	<path
   class="st2"
   d="M 362.17,509.96 V 462.2 h 16.79 l 7.87,13.82 c 3.05,5.31 6.02,11.83 8.43,18.07 h 0.21 c -0.85,-7.09 -0.92,-12.9 -0.92,-19.42 V 462.2 h 12.4 v 47.76 h -14.67 l -8.65,-15.8 c -3.05,-5.53 -6.45,-11.98 -9.21,-18.5 h -0.28 c 0.35,7.23 0.42,14.17 0.42,21.4 v 12.9 z"
   id="path10"
   inkscape:connector-curvature="0"
   style="display:inline;fill:#ffffff" />
	<path
   class="st2"
   d="m 448.83,491.04 h -19.42 v 8.15 h 21.68 v 10.77 H 416.01 V 462.2 h 34.01 v 10.77 H 429.4 v 7.3 h 19.42 v 10.77 z"
   id="path12"
   inkscape:connector-curvature="0"
   style="display:inline;fill:#ffffff" />
	<path
   class="st2"
   d="M 471.79,509.96 V 490.05 L 455.21,462.2 h 15.66 l 4.46,10.63 c 1.49,3.47 2.41,5.53 3.61,8.5 h 0.14 c 1.13,-2.76 2.2,-5.17 3.54,-8.43 l 4.46,-10.7 h 15.45 l -17.36,27.35 v 20.41 z"
   id="path14"
   inkscape:connector-curvature="0"
   style="display:inline;fill:#ffffff" />
</g>
<g
   class="st1"
   id="g36"
   transform="translate(-224.24,1670.45)"
   style="display:none">
	<path
   class="st2"
   d="m 254.85,528.53 h -8.72 v -4.89 h 22.89 v 4.89 h -8.72 v 42.87 h -5.46 v -42.87 z"
   id="path18"
   inkscape:connector-curvature="0"
   style="display:inline;fill:#ffffff" />
	<path
   class="st2"
   d="m 274.4,524.35 c 2.27,-0.64 5.1,-0.92 7.79,-0.92 4.75,0 8.29,0.99 10.77,3.4 2.34,2.41 3.33,5.6 3.33,9.35 0,6.09 -2.83,10.06 -7.65,12.33 v 0.14 c 3.54,1.06 5.39,4.46 6.38,10.7 1.13,6.52 2.05,10.56 2.76,12.05 h -5.53 c -0.71,-1.42 -1.63,-5.95 -2.55,-11.76 -1.06,-6.59 -3.12,-9 -7.79,-9 h -2.13 v 20.76 h -5.39 v -47.05 z m 5.39,22.04 h 2.34 c 5.17,0 8.64,-3.83 8.64,-9.57 0,-5.53 -2.27,-8.93 -8.08,-9 -1.13,0 -2.2,0.07 -2.91,0.28 v 18.29 z"
   id="path20"
   inkscape:connector-curvature="0"
   style="display:inline;fill:#ffffff" />
	<path
   class="st2"
   d="m 309.48,557.09 -3.12,14.31 h -5.32 l 10.91,-47.76 h 6.02 l 10.63,47.76 h -5.39 l -3.12,-14.31 z m 9.85,-4.4 -2.48,-12.12 c -0.71,-3.4 -1.35,-7.37 -1.91,-10.91 h -0.21 c -0.57,3.61 -1.28,7.72 -1.98,10.91 l -2.48,12.12 z"
   id="path22"
   inkscape:connector-curvature="0"
   style="display:inline;fill:#ffffff" />
	<path
   class="st2"
   d="m 334.64,571.4 v -47.76 h 5.1 l 8.79,22.39 c 1.98,5.17 4.46,11.48 6.09,16.65 h 0.14 c -0.42,-7.51 -0.64,-13.68 -0.64,-21.97 v -17.08 h 4.89 v 47.76 h -5.1 l -9.07,-22.96 c -1.98,-4.82 -4.04,-10.28 -5.74,-16.23 h -0.14 c 0.42,6.38 0.57,12.47 0.57,22.68 v 16.51 h -4.89 z"
   id="path24"
   inkscape:connector-curvature="0"
   style="display:inline;fill:#ffffff" />
	<path
   class="st2"
   d="m 366.45,565.09 c 1.56,1.06 4.46,1.91 6.8,1.91 5.03,0 8.01,-3.26 8.01,-8.08 0,-4.39 -2.55,-7.09 -6.31,-9.92 -3.83,-2.62 -9,-7.09 -9,-13.25 0,-7.23 5.03,-12.54 12.61,-12.54 2.98,0 5.53,0.92 6.66,1.77 l -1.28,4.68 c -1.2,-0.85 -3.19,-1.63 -5.67,-1.63 -4.75,0 -6.94,3.54 -6.94,6.8 0,4.75 2.48,6.59 7.02,9.85 5.74,4.04 8.29,8.43 8.29,13.75 0,8.22 -5.74,13.39 -13.39,13.39 -3.26,0 -6.66,-1.06 -8.01,-2.06 z"
   id="path26"
   inkscape:connector-curvature="0"
   style="display:inline;fill:#ffffff" />
	<path
   class="st2"
   d="m 393.1,523.64 h 18.21 v 4.75 h -12.75 v 16.72 h 11.91 v 4.61 h -11.91 v 21.68 h -5.46 z"
   id="path28"
   inkscape:connector-curvature="0"
   style="display:inline;fill:#ffffff" />
	<path
   class="st2"
   d="M 434.98,548.73 H 423 v 17.93 h 13.61 v 4.75 h -19.06 v -47.76 h 18.21 v 4.75 H 423 v 15.73 h 11.98 z"
   id="path30"
   inkscape:connector-curvature="0"
   style="display:inline;fill:#ffffff" />
	<path
   class="st2"
   d="m 442.7,524.35 c 2.27,-0.64 5.1,-0.92 7.79,-0.92 4.75,0 8.29,0.99 10.77,3.4 2.34,2.41 3.33,5.6 3.33,9.35 0,6.09 -2.83,10.06 -7.65,12.33 v 0.14 c 3.54,1.06 5.39,4.46 6.38,10.7 1.13,6.52 2.05,10.56 2.76,12.05 h -5.53 c -0.71,-1.42 -1.63,-5.95 -2.55,-11.76 -1.06,-6.59 -3.12,-9 -7.79,-9 h -2.13 v 20.76 h -5.39 v -47.05 z m 5.38,22.04 h 2.34 c 5.17,0 8.64,-3.83 8.64,-9.57 0,-5.53 -2.27,-8.93 -8.08,-9 -1.13,0 -2.2,0.07 -2.91,0.28 v 18.29 z"
   id="path32"
   inkscape:connector-curvature="0"
   style="display:inline;fill:#ffffff" />
	<path
   class="st2"
   d="m 470.55,565.09 c 1.56,1.06 4.46,1.91 6.8,1.91 5.03,0 8.01,-3.26 8.01,-8.08 0,-4.39 -2.55,-7.09 -6.31,-9.92 -3.83,-2.62 -9,-7.09 -9,-13.25 0,-7.23 5.03,-12.54 12.61,-12.54 2.98,0 5.53,0.92 6.66,1.77 l -1.28,4.68 c -1.2,-0.85 -3.19,-1.63 -5.67,-1.63 -4.75,0 -6.94,3.54 -6.94,6.8 0,4.75 2.48,6.59 7.02,9.85 5.74,4.04 8.29,8.43 8.29,13.75 0,8.22 -5.74,13.39 -13.39,13.39 -3.26,0 -6.66,-1.06 -8.01,-2.06 z"
   id="path34"
   inkscape:connector-curvature="0"
   style="display:inline;fill:#ffffff" />
</g>





















<g
   id="g6542"
   transform="matrix(4.6983362,0,0,4.6983362,406.58636,-8187.2338)"><g
     style="enable-background:new"
     transform="translate(-224.24,1670.45)"
     id="g50"
     class="st3">
	<defs
   id="defs39">
		<path
   style="enable-background:new"
   inkscape:connector-curvature="0"
   d="m 379.99,246.47 -17.11,31.86 c -6.49,-1.62 -16.74,-2.35 -26.27,-1.43 l 17.11,-31.86 c 9.53,-0.92 19.77,-0.19 26.27,1.43 z"
   class="st3"
   id="SVGID_1_" />
	</defs>
	<clipPath
   id="SVGID_2_">
		<use
   height="100%"
   width="100%"
   y="0"
   x="0"
   id="use41"
   style="overflow:visible"
   xlink:href="#SVGID_1_" />
	</clipPath>
	<g
   style="enable-background:new"
   id="g48"
   clip-path="url(#SVGID_2_)"
   class="st4">
		<path
   style="fill:#999999"
   inkscape:connector-curvature="0"
   id="path44"
   d="m 379.99,246.47 -17.11,31.86 c -6.35,-1.58 -16.28,-2.32 -25.64,-1.49 l 17.11,-31.86 c 9.35,-0.83 19.29,-0.09 25.64,1.49"
   class="st5" />
		<path
   style="fill:#949494"
   inkscape:connector-curvature="0"
   id="path46"
   d="m 354.35,244.98 -17.11,31.86 c -0.21,0.02 -0.42,0.04 -0.63,0.06 l 17.11,-31.86 c 0.21,-0.02 0.42,-0.04 0.63,-0.06"
   class="st6" />
	</g>
</g><g
     transform="translate(-224.24,1670.45)"
     id="g54">
	<polygon
   style="fill:#909090"
   id="polygon52"
   points="349.51,239.14 353.72,245.04 336.6,276.9 332.39,271 "
   class="st7" />
</g><g
     transform="translate(-224.24,1670.45)"
     id="g58">
	<polygon
   style="fill:#858585"
   id="polygon56"
   points="379.99,246.47 385.68,262.62 368.57,294.48 362.87,278.33 "
   class="st8" />
</g><g
     transform="translate(-224.24,1670.45)"
     id="g62">
	<polygon
   style="fill:#36383d"
   id="polygon60"
   points="334.38,241.54 339.06,248.1 321.95,279.96 317.27,273.39 "
   class="st9" />
</g><g
     style="enable-background:new"
     transform="translate(-224.24,1670.45)"
     id="g82"
     class="st3">
	<defs
   id="defs65">
		<path
   style="enable-background:new"
   inkscape:connector-curvature="0"
   d="m 337.49,295.69 17.11,-31.86 c 0.71,-1.33 3.45,-2.27 7.22,-2.86 8,-1.27 18.51,0.3 23.85,1.66 l -17.11,31.86 c -5.34,-1.36 -15.85,-2.93 -23.85,-1.66 -3.77,0.59 -6.5,1.53 -7.22,2.86 z"
   class="st3"
   id="SVGID_3_" />
	</defs>
	<clipPath
   id="SVGID_4_">
		<use
   height="100%"
   width="100%"
   y="0"
   x="0"
   id="use67"
   style="overflow:visible"
   xlink:href="#SVGID_3_" />
	</clipPath>
	<g
   style="enable-background:new"
   id="g80"
   clip-path="url(#SVGID_4_)"
   class="st10">
		<path
   style="fill:#36383d"
   inkscape:connector-curvature="0"
   id="path70"
   d="m 385.68,262.62 -17.11,31.86 c -4.82,-1.23 -13.87,-2.63 -21.47,-1.95 l 17.11,-31.86 c 7.6,-0.68 16.65,0.72 21.47,1.95"
   class="st9" />
		<path
   style="fill:#36383d"
   inkscape:connector-curvature="0"
   id="path72"
   d="m 364.21,260.67 -17.11,31.86 c -0.81,0.07 -1.61,0.17 -2.38,0.29 -1.89,0.3 -3.53,0.69 -4.78,1.16 l 17.11,-31.86 c 1.25,-0.48 2.88,-0.86 4.78,-1.16 0.77,-0.12 1.57,-0.22 2.38,-0.29"
   class="st9" />
		<path
   style="fill:#36383d"
   inkscape:connector-curvature="0"
   id="path74"
   d="m 357.05,262.13 -17.11,31.86 c -0.72,0.28 -1.32,0.59 -1.76,0.93 l 17.11,-31.86 c 0.45,-0.35 1.04,-0.66 1.76,-0.93"
   class="st9" />
		<path
   style="fill:#36383d"
   inkscape:connector-curvature="0"
   id="path76"
   d="m 355.3,263.05 -17.11,31.86 c -0.28,0.22 -0.5,0.45 -0.65,0.7 l 17.11,-31.86 c 0.15,-0.24 0.37,-0.48 0.65,-0.7"
   class="st9" />
		<path
   style="fill:#36383d"
   inkscape:connector-curvature="0"
   id="path78"
   d="m 354.65,263.75 -17.11,31.86 c -0.01,0.02 -0.03,0.05 -0.04,0.07 l 17.11,-31.86 c 0.01,-0.02 0.02,-0.04 0.04,-0.07"
   class="st9" />
	</g>
</g><g
     style="enable-background:new"
     transform="translate(-224.24,1670.45)"
     id="g110"
     class="st3">
	<defs
   id="defs85">
		<path
   style="enable-background:new"
   inkscape:connector-curvature="0"
   d="M 414.36,301.14 397.24,333 c 2.56,-4.77 1.6,-10.14 -1.94,-15.11 -6.69,-9.38 -17.08,-14.64 -40.88,-16.46 -12.66,-0.94 -15.06,-1.58 -16.66,-3.83 -0.51,-0.71 -0.57,-1.34 -0.27,-1.91 l 17.11,-31.86 c -0.3,0.56 -0.24,1.2 0.27,1.91 1.6,2.25 4.01,2.89 16.66,3.83 23.8,1.82 34.19,7.08 40.88,16.46 3.55,4.97 4.51,10.34 1.95,15.11 z"
   class="st3"
   id="SVGID_5_" />
	</defs>
	<clipPath
   id="SVGID_6_">
		<use
   height="100%"
   width="100%"
   y="0"
   x="0"
   id="use87"
   style="overflow:visible"
   xlink:href="#SVGID_5_" />
	</clipPath>
	<g
   style="enable-background:new"
   id="g108"
   clip-path="url(#SVGID_6_)"
   class="st11">
		<path
   style="fill:#858585"
   inkscape:connector-curvature="0"
   id="path90"
   d="M 414.36,301.14 397.24,333 c 2.56,-4.77 1.6,-10.14 -1.94,-15.11 -0.27,-0.38 -0.55,-0.76 -0.84,-1.12 l 17.11,-31.86 c 0.29,0.37 0.56,0.74 0.84,1.12 3.55,4.97 4.51,10.34 1.95,15.11"
   class="st8" />
		<path
   style="fill:#8a8a8a"
   inkscape:connector-curvature="0"
   id="path92"
   d="m 411.58,284.91 -17.11,31.86 c -1.09,-1.41 -2.28,-2.71 -3.6,-3.93 l 17.11,-31.86 c 1.32,1.21 2.51,2.52 3.6,3.93"
   class="st12" />
		<path
   style="fill:#8f8f8f"
   inkscape:connector-curvature="0"
   id="path94"
   d="m 407.98,280.98 -17.11,31.86 c -1.04,-0.95 -2.16,-1.84 -3.39,-2.68 l 17.11,-31.86 c 1.22,0.84 2.35,1.73 3.39,2.68"
   class="st13" />
		<path
   style="fill:#949494"
   inkscape:connector-curvature="0"
   id="path96"
   d="m 404.59,278.3 -17.11,31.86 c -1.49,-1.01 -3.12,-1.94 -4.94,-2.78 l 17.11,-31.86 c 1.81,0.84 3.45,1.77 4.94,2.78"
   class="st6" />
		<path
   style="fill:#999999"
   inkscape:connector-curvature="0"
   id="path98"
   d="m 399.65,275.52 -17.11,31.86 c -6.54,-3.03 -15.42,-4.98 -28.11,-5.95 -8.62,-0.64 -12.48,-1.14 -14.58,-2.11 l 17.11,-31.86 c 2.09,0.97 5.96,1.47 14.58,2.11 12.69,0.97 21.57,2.92 28.11,5.95"
   class="st5" />
		<path
   style="fill:#949494"
   inkscape:connector-curvature="0"
   id="path100"
   d="m 356.96,267.46 -17.11,31.86 c -0.31,-0.14 -0.58,-0.29 -0.82,-0.46 L 356.14,267 c 0.24,0.17 0.51,0.32 0.82,0.46"
   class="st6" />
		<path
   style="fill:#8f8f8f"
   inkscape:connector-curvature="0"
   id="path102"
   d="m 356.14,267 -17.11,31.86 c -0.19,-0.13 -0.37,-0.27 -0.53,-0.42 l 17.11,-31.86 c 0.16,0.15 0.34,0.29 0.53,0.42"
   class="st13" />
		<path
   style="fill:#8a8a8a"
   inkscape:connector-curvature="0"
   id="path104"
   d="m 355.61,266.58 -17.11,31.86 c -0.22,-0.2 -0.41,-0.42 -0.59,-0.65 l 17.11,-31.86 c 0.18,0.24 0.37,0.45 0.59,0.65"
   class="st12" />
		<path
   style="fill:#858585"
   inkscape:connector-curvature="0"
   id="path106"
   d="m 355.02,265.93 -17.11,31.86 c -0.05,-0.06 -0.1,-0.13 -0.15,-0.2 -0.51,-0.71 -0.57,-1.34 -0.27,-1.91 l 17.11,-31.86 c -0.3,0.56 -0.24,1.2 0.27,1.91 0.05,0.07 0.1,0.14 0.15,0.2"
   class="st8" />
	</g>
</g><g
     style="enable-background:new"
     transform="translate(-224.24,1670.45)"
     id="g128"
     class="st3">
	<defs
   id="defs113">
		<path
   style="enable-background:new"
   inkscape:connector-curvature="0"
   d="m 308.46,289.33 17.11,-31.86 c 2.07,-3.86 6.66,-7.07 13.49,-9.37 l -17.11,31.86 c -6.83,2.3 -11.42,5.51 -13.49,9.37 z"
   class="st3"
   id="SVGID_7_" />
	</defs>
	<clipPath
   id="SVGID_8_">
		<use
   height="100%"
   width="100%"
   y="0"
   x="0"
   id="use115"
   style="overflow:visible"
   xlink:href="#SVGID_7_" />
	</clipPath>
	<g
   style="enable-background:new"
   id="g126"
   clip-path="url(#SVGID_8_)"
   class="st14">
		<path
   style="fill:#949494"
   inkscape:connector-curvature="0"
   id="path118"
   d="m 339.06,248.1 -17.11,31.86 c -0.62,0.21 -1.22,0.42 -1.8,0.65 l 17.11,-31.86 c 0.59,-0.23 1.19,-0.44 1.8,-0.65"
   class="st6" />
		<path
   style="fill:#8f8f8f"
   inkscape:connector-curvature="0"
   id="path120"
   d="m 337.27,248.75 -17.11,31.86 c -3.08,1.18 -5.64,2.57 -7.65,4.13 l 17.11,-31.86 c 2.01,-1.57 4.57,-2.95 7.65,-4.13"
   class="st13" />
		<path
   style="fill:#8a8a8a"
   inkscape:connector-curvature="0"
   id="path122"
   d="m 329.62,252.87 -17.11,31.86 c -1.63,1.26 -2.89,2.64 -3.78,4.12 L 325.84,257 c 0.89,-1.48 2.15,-2.86 3.78,-4.13"
   class="st12" />
		<path
   style="fill:#858585"
   inkscape:connector-curvature="0"
   id="path124"
   d="m 325.84,257 -17.11,31.86 c -0.09,0.16 -0.18,0.31 -0.27,0.47 l 17.11,-31.86 c 0.09,-0.16 0.18,-0.32 0.27,-0.47"
   class="st8" />
	</g>
</g><g
     style="enable-background:new"
     transform="translate(-224.24,1670.45)"
     id="g146"
     class="st3">
	<defs
   id="defs131">
		<path
   style="enable-background:new"
   inkscape:connector-curvature="0"
   d="M 414.36,301.14 397.24,333 c -2.07,3.85 -6.44,7.31 -13.62,9.83 l 17.11,-31.86 c 7.18,-2.52 11.56,-5.98 13.63,-9.83 z"
   class="st3"
   id="SVGID_9_" />
	</defs>
	<clipPath
   id="SVGID_10_">
		<use
   height="100%"
   width="100%"
   y="0"
   x="0"
   id="use133"
   style="overflow:visible"
   xlink:href="#SVGID_9_" />
	</clipPath>
	<g
   style="enable-background:new"
   id="g144"
   clip-path="url(#SVGID_10_)"
   class="st15">
		<path
   style="fill:#36383d"
   inkscape:connector-curvature="0"
   id="path136"
   d="M 414.36,301.14 397.24,333 c -0.1,0.18 -0.2,0.36 -0.3,0.53 l 17.11,-31.86 c 0.11,-0.17 0.21,-0.35 0.31,-0.53"
   class="st9" />
		<path
   style="fill:#36383d"
   inkscape:connector-curvature="0"
   id="path138"
   d="m 414.06,301.67 -17.11,31.86 c -0.96,1.6 -2.33,3.13 -4.15,4.55 l 17.11,-31.86 c 1.81,-1.41 3.19,-2.94 4.15,-4.55"
   class="st9" />
		<path
   style="fill:#36383d"
   inkscape:connector-curvature="0"
   id="path140"
   d="m 409.91,306.22 -17.11,31.86 c -2.06,1.6 -4.69,3.06 -7.96,4.31 l 17.11,-31.86 c 3.26,-1.25 5.9,-2.71 7.96,-4.31"
   class="st9" />
		<path
   style="fill:#36383d"
   inkscape:connector-curvature="0"
   id="path142"
   d="m 401.95,310.53 -17.11,31.86 c -0.39,0.15 -0.8,0.3 -1.21,0.44 l 17.11,-31.86 c 0.41,-0.14 0.81,-0.29 1.21,-0.44"
   class="st9" />
	</g>
</g><g
     style="enable-background:new"
     transform="translate(-224.24,1670.45)"
     id="g174"
     class="st3">
	<defs
   id="defs149">
		<path
   style="enable-background:new"
   inkscape:connector-curvature="0"
   d="m 383.64,293.85 -17.11,31.86 c 0.33,-0.61 0.22,-1.32 -0.38,-2.17 -1.13,-1.58 -3.33,-2.86 -15.16,-3.78 -22.36,-1.61 -33.28,-6.49 -40.44,-16.53 -3.66,-5.13 -4.25,-9.87 -2.08,-13.9 l 17.11,-31.86 c -2.17,4.03 -1.58,8.77 2.08,13.9 7.16,10.04 18.09,14.93 40.44,16.53 11.83,0.93 14.03,2.2 15.16,3.78 0.6,0.85 0.71,1.56 0.38,2.17 z"
   class="st3"
   id="SVGID_11_" />
	</defs>
	<clipPath
   id="SVGID_12_">
		<use
   height="100%"
   width="100%"
   y="0"
   x="0"
   id="use151"
   style="overflow:visible"
   xlink:href="#SVGID_11_" />
	</clipPath>
	<g
   style="enable-background:new"
   id="g172"
   clip-path="url(#SVGID_12_)"
   class="st16">
		<path
   style="fill:#36383d"
   inkscape:connector-curvature="0"
   id="path154"
   d="m 383.64,293.85 -17.11,31.86 c 0.33,-0.61 0.22,-1.32 -0.38,-2.17 -0.04,-0.05 -0.07,-0.1 -0.11,-0.15 l 17.11,-31.86 c 0.04,0.05 0.08,0.1 0.11,0.15 0.6,0.85 0.71,1.56 0.38,2.17"
   class="st9" />
		<path
   style="fill:#36383d"
   inkscape:connector-curvature="0"
   id="path156"
   d="m 383.15,291.53 -17.11,31.86 c -0.14,-0.18 -0.3,-0.36 -0.48,-0.53 L 382.67,291 c 0.18,0.18 0.34,0.35 0.48,0.53"
   class="st9" />
		<path
   style="fill:#36383d"
   inkscape:connector-curvature="0"
   id="path158"
   d="m 382.66,291.01 -17.11,31.86 c -0.14,-0.13 -0.31,-0.26 -0.49,-0.39 l 17.11,-31.86 c 0.19,0.12 0.35,0.25 0.49,0.39"
   class="st9" />
		<path
   style="fill:#36383d"
   inkscape:connector-curvature="0"
   id="path160"
   d="m 382.17,290.62 -17.11,31.86 c -0.24,-0.16 -0.52,-0.32 -0.85,-0.48 l 17.11,-31.86 c 0.33,0.15 0.61,0.31 0.85,0.48"
   class="st9" />
		<path
   style="fill:#36383d"
   inkscape:connector-curvature="0"
   id="path162"
   d="M 381.31,290.14 364.2,322 c -1.9,-0.89 -5.52,-1.63 -13.22,-2.24 -12.06,-0.87 -20.79,-2.69 -27.4,-5.76 l 17.11,-31.86 c 6.61,3.07 15.34,4.89 27.4,5.76 7.7,0.6 11.32,1.35 13.22,2.24"
   class="st9" />
		<path
   style="fill:#36383d"
   inkscape:connector-curvature="0"
   id="path164"
   d="M 340.69,282.15 323.58,314 c -1.8,-0.84 -3.45,-1.77 -4.96,-2.8 l 17.11,-31.86 c 1.51,1.04 3.16,1.97 4.96,2.81"
   class="st9" />
		<path
   style="fill:#36383d"
   inkscape:connector-curvature="0"
   id="path166"
   d="m 335.73,279.35 -17.11,31.86 c -1.25,-0.85 -2.41,-1.77 -3.49,-2.76 l 17.11,-31.86 c 1.09,0.99 2.24,1.91 3.49,2.76"
   class="st9" />
		<path
   style="fill:#36383d"
   inkscape:connector-curvature="0"
   id="path168"
   d="m 332.24,276.59 -17.11,31.86 c -1.36,-1.24 -2.59,-2.6 -3.73,-4.07 l 17.11,-31.86 c 1.14,1.47 2.38,2.83 3.73,4.07"
   class="st9" />
		<path
   style="fill:#36383d"
   inkscape:connector-curvature="0"
   id="path170"
   d="m 328.51,272.52 -17.11,31.86 c -0.29,-0.38 -0.58,-0.76 -0.86,-1.15 -3.66,-5.13 -4.25,-9.87 -2.08,-13.9 l 17.11,-31.86 c -2.17,4.03 -1.58,8.77 2.08,13.9 0.28,0.39 0.57,0.78 0.86,1.15"
   class="st9" />
	</g>
</g><g
     style="enable-background:new"
     transform="translate(-224.24,1670.45)"
     id="g194"
     class="st3">
	<defs
   id="defs177">
		<path
   style="enable-background:new"
   inkscape:connector-curvature="0"
   d="m 383.64,293.85 -17.11,31.86 c -0.69,1.29 -3.34,2.12 -7.39,2.76 -8.14,1.29 -21.41,-0.28 -28.72,-2.36 l 17.11,-31.86 c 7.31,2.08 20.58,3.65 28.72,2.36 4.05,-0.64 6.7,-1.47 7.39,-2.76 z"
   class="st3"
   id="SVGID_13_" />
	</defs>
	<clipPath
   id="SVGID_14_">
		<use
   height="100%"
   width="100%"
   y="0"
   x="0"
   id="use179"
   style="overflow:visible"
   xlink:href="#SVGID_13_" />
	</clipPath>
	<g
   style="enable-background:new"
   id="g192"
   clip-path="url(#SVGID_14_)"
   class="st17">
		<path
   style="fill:#858585"
   inkscape:connector-curvature="0"
   id="path182"
   d="m 383.64,293.85 -17.11,31.86 c -0.01,0.02 -0.03,0.05 -0.04,0.07 l 17.11,-31.86 c 0.02,-0.02 0.03,-0.05 0.04,-0.07"
   class="st8" />
		<path
   style="fill:#8a8a8a"
   inkscape:connector-curvature="0"
   id="path184"
   d="m 383.6,293.92 -17.11,31.86 c -0.14,0.23 -0.33,0.44 -0.59,0.64 l 17.11,-31.86 c 0.26,-0.2 0.46,-0.41 0.59,-0.64"
   class="st12" />
		<path
   style="fill:#8f8f8f"
   inkscape:connector-curvature="0"
   id="path186"
   d="m 383.01,294.56 -17.11,31.86 c -0.39,0.3 -0.91,0.58 -1.56,0.82 l 17.11,-31.86 c 0.65,-0.25 1.17,-0.52 1.56,-0.82"
   class="st13" />
		<path
   style="fill:#949494"
   inkscape:connector-curvature="0"
   id="path188"
   d="m 381.45,295.38 -17.11,31.86 c -1.28,0.49 -3.04,0.88 -5.2,1.23 -0.73,0.12 -1.5,0.21 -2.31,0.28 l 17.11,-31.86 c 0.8,-0.07 1.58,-0.16 2.31,-0.28 2.16,-0.34 3.92,-0.74 5.2,-1.23"
   class="st6" />
		<path
   style="fill:#999999"
   inkscape:connector-curvature="0"
   id="path190"
   d="m 373.94,296.89 -17.11,31.86 c -8.17,0.72 -19.76,-0.75 -26.41,-2.64 l 17.11,-31.86 c 6.65,1.89 18.24,3.36 26.41,2.64"
   class="st5" />
	</g>
</g><g
     transform="translate(-224.24,1670.45)"
     id="g198">
	<polygon
   style="fill:#36383d"
   id="polygon196"
   points="386.08,314.02 389.92,319.4 372.8,351.26 368.97,345.88 "
   class="st9" />
</g><g
     transform="translate(-224.24,1670.45)"
     id="g202">
	<polygon
   style="fill:#36383d"
   id="polygon200"
   points="347.53,294.25 353.27,311.14 336.15,343 330.41,326.11 "
   class="st9" />
</g><g
     style="enable-background:new"
     transform="translate(-224.24,1670.45)"
     id="g216"
     class="st3">
	<defs
   id="defs205">
		<path
   style="enable-background:new"
   inkscape:connector-curvature="0"
   d="m 386.08,314.02 -17.11,31.86 c -10.99,1.16 -23.92,-0.18 -32.82,-2.88 l 17.11,-31.86 c 8.9,2.7 21.83,4.04 32.82,2.88 z"
   class="st3"
   id="SVGID_15_" />
	</defs>
	<clipPath
   id="SVGID_16_">
		<use
   height="100%"
   width="100%"
   y="0"
   x="0"
   id="use207"
   style="overflow:visible"
   xlink:href="#SVGID_15_" />
	</clipPath>
	<g
   style="enable-background:new"
   id="g214"
   clip-path="url(#SVGID_16_)"
   class="st18">
		<path
   style="fill:#36383d"
   inkscape:connector-curvature="0"
   id="path210"
   d="m 386.08,314.02 -17.11,31.86 c -0.37,0.04 -0.74,0.08 -1.12,0.11 l 17.11,-31.86 c 0.38,-0.03 0.75,-0.07 1.12,-0.11"
   class="st9" />
		<path
   style="fill:#36383d"
   inkscape:connector-curvature="0"
   id="path212"
   d="m 384.96,314.13 -17.11,31.86 c -10.74,0.96 -23.1,-0.38 -31.7,-2.99 l 17.11,-31.86 c 8.6,2.61 20.96,3.95 31.7,2.99"
   class="st9" />
	</g>
</g><g
     transform="translate(-224.24,1670.45)"
     id="g220">
	<polygon
   style="fill:#5a4e8c"
   id="polygon218"
   points="255.31,254.06 310.85,331.92 293.73,363.78 238.2,285.92 "
   class="st19" />
</g><g
     transform="translate(-224.24,1670.45)"
     id="g224">
	<polygon
   style="fill:#5a4e8c"
   id="polygon222"
   points="310.85,331.92 482.95,304.66 465.83,336.52 293.73,363.78 "
   class="st19" />
</g><g
     transform="translate(-224.24,1670.45)"
     id="g228">
	<path
   style="fill:#685aa3"
   inkscape:connector-curvature="0"
   id="path226"
   d="m 427.41,226.8 55.54,77.86 -172.1,27.26 -55.54,-77.86 79.07,-12.52 4.68,6.57 c -13.97,4.71 -18.57,13.23 -11.41,23.27 7.16,10.04 18.09,14.93 40.44,16.53 11.83,0.93 14.03,2.2 15.16,3.78 1.88,2.64 -1.04,3.98 -7.01,4.93 -8.14,1.29 -21.41,-0.28 -28.72,-2.36 l 5.74,16.89 c 8.89,2.7 21.82,4.04 32.82,2.88 l 3.83,5.38 15.12,-2.4 -4.3,-6.03 c 16.05,-5.64 18.08,-15.96 11.67,-24.94 -6.69,-9.38 -17.08,-14.64 -40.88,-16.46 -12.66,-0.94 -15.06,-1.58 -16.66,-3.83 -1.7,-2.38 1.58,-3.92 6.96,-4.77 8,-1.27 18.51,0.3 23.85,1.66 l -5.69,-16.15 c -6.49,-1.62 -16.74,-2.35 -26.27,-1.43 l -4.21,-5.9 z"
   class="st20" />
</g><polygon
     style="fill:#5a4e8c"
     transform="translate(-224.24,1670.45)"
     id="polygon230"
     points="225.98,218.05 456.86,179.7 461.24,207.32 246.63,241.54 "
     class="st19" /><polygon
     style="fill:#5a4e8c"
     transform="translate(-224.24,1670.45)"
     id="polygon232"
     points="401.98,161.68 452.06,235.13 498.13,184.3 "
     class="st19" /><polygon
     style="fill:#685aa3"
     transform="translate(-224.24,1670.45)"
     id="polygon234"
     points="496.39,373.18 265.51,411.53 261.13,383.92 475.74,349.7 "
     class="st20" /><polygon
     style="fill:#685aa3"
     transform="translate(-224.24,1670.45)"
     id="polygon236"
     points="320.39,429.55 270.31,356.11 224.24,406.93 "
     class="st20" /><polygon
     style="fill:#685aa3"
     transform="translate(-224.24,1670.45)"
     id="polygon238"
     points="392.1,239.14 349.51,239.14 334.38,241.54 315.1,255.75 350.65,318.62 389.92,319.4 405.04,317 436.85,272.75 "
     class="st20" /><g
     transform="translate(-224.24,1670.45)"
     id="g242">
	<path
   style="fill:#ffffff"
   inkscape:connector-curvature="0"
   id="path240"
   d="m 355.43,238.19 c 7.25,-1.47 15.3,-1.4 21.85,-0.12 l 5.71,16.76 c -4.13,-0.73 -10.16,-1.33 -15.65,-0.22 -5.49,1.11 -9.62,4.3 -10.39,9.82 -0.25,1.23 -0.14,2.65 -0.03,4.06 l 29.22,-5.93 5.72,9.57 -31.53,6.4 c 0.38,0.84 0.94,1.77 1.5,2.71 0.42,0.7 0.77,1.29 1.18,1.98 l 31.64,-6.42 5.72,9.57 -29.33,5.95 c 1.68,1.36 3.39,2.59 5.08,3.55 6.24,3.44 12.85,4.19 19,2.94 5.27,-1.07 9.94,-3.98 11.59,-5.75 l 12.68,14.83 c -2.86,3.46 -8.82,7.29 -16.4,8.83 -13.4,2.72 -28.82,-0.82 -42.09,-10.04 -4.04,-2.84 -7.85,-6.12 -11.39,-9.99 l -7.69,1.56 -5.72,-9.57 6.26,-1.27 c -0.42,-0.7 -0.9,-1.51 -1.32,-2.21 -0.49,-0.82 -0.87,-1.66 -1.35,-2.47 l -6.37,1.29 -5.72,-9.57 7.9,-1.6 c -1.73,-5.79 -1.96,-11.11 -0.93,-15.77 2.14,-9.6 9.43,-16.57 20.86,-18.89 z"
   class="st21" />
</g></g>
</svg>