<?xml version="1.0" encoding="UTF-8" standalone="no"?>
<!-- Generator: Adobe Illustrator 25.2.1, SVG Export Plug-In . SVG Version: 6.00 Build 0)  -->

<svg
   xmlns:dc="http://purl.org/dc/elements/1.1/"
   xmlns:cc="http://creativecommons.org/ns#"
   xmlns:rdf="http://www.w3.org/1999/02/22-rdf-syntax-ns#"
   xmlns:svg="http://www.w3.org/2000/svg"
   xmlns="http://www.w3.org/2000/svg"
   xmlns:sodipodi="http://sodipodi.sourceforge.net/DTD/sodipodi-0.dtd"
   xmlns:inkscape="http://www.inkscape.org/namespaces/inkscape"
   version="1.1"
   id="Layer_1"
   x="0px"
   y="0px"
   viewBox="0 0 2100 2100"
   xml:space="preserve"
   sodipodi:docname="3.svg"
   width="2100"
   height="2100"
   inkscape:version="0.92.4 (5da689c313, 2019-01-14)"><metadata
   id="metadata9548"><rdf:RDF><cc:Work
       rdf:about=""><dc:format>image/svg+xml</dc:format><dc:type
         rdf:resource="http://purl.org/dc/dcmitype/StillImage" /><dc:title></dc:title></cc:Work></rdf:RDF></metadata><defs
   id="defs9546" /><sodipodi:namedview
   pagecolor="#ffffff"
   bordercolor="#666666"
   borderopacity="1"
   objecttolerance="10"
   gridtolerance="10"
   guidetolerance="10"
   inkscape:pageopacity="0"
   inkscape:pageshadow="2"
   inkscape:window-width="1600"
   inkscape:window-height="841"
   id="namedview9544"
   showgrid="false"
   inkscape:zoom="0.1668772"
   inkscape:cx="288.085"
   inkscape:cy="782.21104"
   inkscape:window-x="0"
   inkscape:window-y="27"
   inkscape:window-maximized="1"
   inkscape:current-layer="Layer_1" />
<style
   type="text/css"
   id="style9497">
	.st0{fill:#735BBF;}
	.st1{fill:#5E4D8E;}
</style>
<g
   id="g9541"
   transform="matrix(1.9345218,0,0,1.9345218,73.733978,44.36786)">
	<path
   class="st0"
   d="m 442.49,313.33 h -8.21 c 0,19.76 8.03,37.73 20.99,50.67 12.94,12.96 30.91,20.99 50.67,20.99 19.76,0 37.73,-8.03 50.67,-20.99 12.96,-12.94 20.99,-30.91 20.99,-50.67 0,-19.76 -8.03,-37.73 -20.99,-50.67 -12.94,-12.96 -30.91,-20.99 -50.67,-20.99 -19.76,0 -37.73,8.03 -50.67,20.99 -12.96,12.94 -20.99,30.91 -20.99,50.67 h 8.21 8.2 c 0,-15.28 6.17,-29.04 16.18,-39.07 10.02,-10.01 23.78,-16.18 39.07,-16.18 15.28,0 29.04,6.17 39.07,16.18 10.01,10.02 16.18,23.79 16.18,39.07 0,15.28 -6.17,29.04 -16.18,39.07 -10.02,10.01 -23.78,16.18 -39.07,16.18 -15.28,0 -29.04,-6.17 -39.07,-16.18 -10.01,-10.02 -16.18,-23.79 -16.18,-39.07 z"
   id="path9499"
   inkscape:connector-curvature="0"
   style="fill:#735bbf" />
	<path
   class="st1"
   d="m 283.3,352.71 h -8.21 c 0,19.76 8.03,37.73 20.99,50.67 12.94,12.96 30.91,20.99 50.67,20.99 19.76,0 37.73,-8.03 50.67,-20.99 12.96,-12.94 20.99,-30.91 20.99,-50.67 0,-19.76 -8.03,-37.73 -20.99,-50.67 -12.94,-12.96 -30.91,-20.99 -50.67,-20.99 -19.76,0 -37.73,8.03 -50.67,20.99 -12.96,12.94 -20.99,30.91 -20.99,50.67 h 8.21 8.2 c 0,-15.28 6.17,-29.04 16.18,-39.07 10.02,-10.01 23.78,-16.18 39.07,-16.18 15.28,0 29.04,6.17 39.07,16.18 10.01,10.02 16.18,23.79 16.18,39.07 0,15.28 -6.17,29.04 -16.18,39.07 -10.02,10.01 -23.78,16.18 -39.07,16.18 -15.28,0 -29.04,-6.17 -39.07,-16.18 -10.01,-10.02 -16.18,-23.79 -16.18,-39.07 z"
   id="path9501"
   inkscape:connector-curvature="0"
   style="fill:#5e4d8e" />
	<path
   class="st0"
   d="m 124.11,392.1 h -8.21 c 0,19.76 8.03,37.73 20.99,50.67 12.94,12.96 30.91,20.99 50.67,20.99 19.76,0 37.73,-8.03 50.67,-20.99 12.96,-12.94 20.99,-30.91 20.99,-50.67 0,-19.76 -8.03,-37.73 -20.99,-50.67 -12.94,-12.96 -30.91,-20.99 -50.67,-20.99 -19.76,0 -37.73,8.03 -50.67,20.99 -12.96,12.94 -20.99,30.91 -20.99,50.67 h 8.21 8.2 c 0,-15.28 6.17,-29.04 16.18,-39.07 10.02,-10.01 23.78,-16.18 39.07,-16.18 15.28,0 29.04,6.17 39.07,16.18 10.01,10.02 16.18,23.79 16.18,39.07 0,15.28 -6.17,29.04 -16.18,39.07 -10.02,10.01 -23.78,16.18 -39.07,16.18 -15.28,0 -29.04,-6.17 -39.07,-16.18 -10.01,-10.02 -16.18,-23.79 -16.18,-39.07 z"
   id="path9503"
   inkscape:connector-curvature="0"
   style="fill:#735bbf" />
	<polyline
   class="st0"
   points="570.28,496.04 570.28,798 586.7,798 586.7,496.04  "
   id="polyline9505"
   style="fill:#735bbf" />
	<polyline
   class="st0"
   points="499.72,684.76 499.72,798 516.13,798 516.13,684.76  "
   id="polyline9507"
   style="fill:#735bbf" />
	<polyline
   class="st1"
   points="337.25,684.76 337.25,798 353.66,798 353.66,684.76  "
   id="polyline9509"
   style="fill:#5e4d8e" />
	<polyline
   class="st0"
   points="174.78,684.76 174.78,798 191.19,798 191.19,684.76  "
   id="polyline9511"
   style="fill:#735bbf" />
	<polyline
   class="st0"
   points="416.02,496.04 416.02,798 432.43,798 432.43,496.04  "
   id="polyline9513"
   style="fill:#735bbf" />
	<polyline
   class="st1"
   points="269.96,532.14 269.96,798 286.37,798 286.37,532.14  "
   id="polyline9515"
   style="fill:#5e4d8e" />
	<polyline
   class="st0"
   points="109.13,578.09 109.13,798 125.54,798 125.54,578.09  "
   id="polyline9517"
   style="fill:#735bbf" />
	<path
   class="st0"
   d="m 585.87,626 c 0.08,-0.17 10.94,-22.43 21.85,-52.26 5.45,-14.92 10.92,-31.73 15.06,-48.68 4.13,-16.96 6.95,-34.05 6.96,-49.75 0,-7.85 -0.71,-15.38 -2.42,-22.4 -1.28,-5.26 -3.14,-10.25 -5.73,-14.82 -1.94,-3.42 -4.31,-6.59 -7.12,-9.4 -4.22,-4.22 -9.45,-7.57 -15.49,-9.77 -6.05,-2.21 -12.88,-3.31 -20.47,-3.31 -49.23,0 -87.61,0 -113.68,0 -13.04,0 -22.99,0 -29.69,0 -6.7,0 -10.13,0 -10.14,0 v 8.21 l 0.28,-8.2 c -0.09,0 -0.28,-0.01 -0.56,-0.01 -1.41,0 -5.14,0.12 -10.09,1.31 -3.72,0.9 -8.13,2.4 -12.7,4.97 -3.43,1.93 -6.94,4.45 -10.25,7.73 -4.97,4.91 -9.45,11.53 -12.6,20.04 -3.15,8.52 -4.99,18.89 -4.99,31.5 0,15.77 2.86,35.06 9.76,58.96 6.9,23.9 17.86,52.42 34.2,86.62 l 14.81,-7.07 c -16.04,-33.57 -26.66,-61.3 -33.24,-84.1 -6.58,-22.79 -9.12,-40.64 -9.11,-54.41 0,-13.07 2.26,-22.43 5.36,-29.16 2.34,-5.06 5.15,-8.68 8.1,-11.42 4.41,-4.1 9.23,-6.24 13.23,-7.37 3.98,-1.13 7.07,-1.2 7.54,-1.19 h 0.06 l 0.07,-3.97 -0.14,3.97 h 0.07 l 0.07,-3.97 -0.14,3.97 h 0.14 0.14 c 0.01,0 3.44,0 10.14,0 20.1,0 69.52,0 143.37,0 7.14,0 12.65,1.22 16.94,3.17 3.22,1.47 5.79,3.35 7.99,5.69 3.28,3.49 5.75,8.1 7.42,13.93 1.67,5.81 2.48,12.78 2.48,20.49 0.01,13.72 -2.55,29.73 -6.49,45.86 -5.9,24.22 -14.85,48.74 -22.32,67.11 -3.73,9.19 -7.1,16.85 -9.52,22.2 -1.21,2.67 -2.19,4.77 -2.85,6.19 -0.33,0.71 -0.59,1.25 -0.76,1.61 -0.09,0.18 -0.15,0.31 -0.19,0.4 l -0.06,0.12 z"
   id="path9519"
   inkscape:connector-curvature="0"
   style="fill:#735bbf" />
	<path
   class="st1"
   d="m 353.85,439.05 c -3.29,0.36 -6.8,0.51 -10.47,0.51 -7.31,0 -15.26,-0.6 -23.43,-1.24 -8.17,-0.63 -16.57,-1.28 -24.9,-1.28 -5.59,0 -11.15,0.3 -16.62,1.14 -8.18,1.26 -16.22,3.77 -23.41,8.49 -3.59,2.36 -6.94,5.26 -9.92,8.72 -2.98,3.47 -5.6,7.49 -7.79,12.06 l 7.4,3.55 -7.28,-3.79 c -7.21,13.84 -10,28.29 -9.98,42.51 0.01,16.17 3.49,32.1 8.01,47.49 4.52,15.4 10.1,30.3 14.57,44.29 l 0.09,0.28 0.11,0.26 c 6.57,16.41 13.25,33.17 22.23,49.01 l 14.27,-8.1 c -8.25,-14.52 -14.7,-30.59 -21.26,-47 l -7.62,3.05 7.81,-2.5 c -4.65,-14.5 -10.16,-29.27 -14.45,-43.9 -4.3,-14.64 -7.35,-29.11 -7.34,-42.87 0.01,-12.14 2.3,-23.7 8.13,-34.94 l 0.06,-0.11 0.06,-0.13 c 2.17,-4.52 4.68,-7.92 7.48,-10.62 2.1,-2.02 4.38,-3.65 6.88,-5 3.75,-2.02 8.03,-3.4 12.84,-4.27 4.8,-0.87 10.11,-1.22 15.74,-1.22 7.46,0 15.47,0.6 23.63,1.24 8.17,0.63 16.49,1.28 24.69,1.28 4.12,0 8.21,-0.17 12.24,-0.6 z"
   id="path9521"
   inkscape:connector-curvature="0"
   style="fill:#5e4d8e" />
	<path
   class="st0"
   d="m 191.67,489.84 c -3.29,0.36 -6.8,0.51 -10.47,0.51 -7.31,0 -15.26,-0.6 -23.43,-1.24 -8.17,-0.63 -16.57,-1.28 -24.9,-1.28 -5.59,0 -11.15,0.3 -16.62,1.14 -8.18,1.26 -16.22,3.77 -23.41,8.49 -3.59,2.36 -6.94,5.26 -9.92,8.72 -2.98,3.47 -5.6,7.49 -7.79,12.06 l 7.4,3.55 -7.28,-3.79 c -7.21,13.84 -10,28.29 -9.98,42.51 0.01,16.17 3.49,32.1 8.01,47.49 4.52,15.4 10.1,30.3 14.57,44.29 l 0.09,0.28 0.11,0.26 c 6.57,16.41 13.25,33.17 22.23,49.01 l 14.27,-8.1 c -8.25,-14.52 -14.7,-30.59 -21.26,-47 l -7.62,3.05 7.81,-2.5 c -4.65,-14.5 -10.16,-29.27 -14.45,-43.9 -4.3,-14.64 -7.35,-29.11 -7.34,-42.87 0.01,-12.14 2.3,-23.7 8.13,-34.94 l 0.06,-0.12 0.05,-0.11 c 2.17,-4.52 4.68,-7.92 7.48,-10.62 2.1,-2.02 4.38,-3.65 6.88,-5 3.75,-2.02 8.03,-3.4 12.84,-4.27 4.8,-0.87 10.11,-1.22 15.74,-1.22 7.46,0 15.47,0.6 23.63,1.24 8.17,0.63 16.49,1.28 24.69,1.28 4.12,0 8.21,-0.17 12.24,-0.6 z"
   id="path9523"
   inkscape:connector-curvature="0"
   style="fill:#735bbf" />
	<path
   class="st1"
   d="m 725.98,352.71 h -8.21 c 0,15.28 -6.17,29.04 -16.18,39.07 -10.02,10.01 -23.78,16.18 -39.07,16.18 -15.28,0 -29.04,-6.17 -39.07,-16.18 -10.01,-10.02 -16.18,-23.79 -16.18,-39.07 0,-15.28 6.17,-29.04 16.18,-39.07 10.02,-10.01 23.78,-16.18 39.07,-16.18 15.28,0 29.04,6.17 39.07,16.18 10.01,10.02 16.18,23.79 16.18,39.07 h 8.21 8.2 c 0,-19.76 -8.03,-37.73 -20.99,-50.67 -12.94,-12.96 -30.91,-20.99 -50.67,-20.99 -19.76,0 -37.73,8.03 -50.67,20.99 -12.96,12.94 -20.99,30.91 -20.99,50.67 0,19.76 8.03,37.73 20.99,50.67 12.94,12.96 30.91,20.99 50.67,20.99 19.76,0 37.73,-8.03 50.67,-20.99 12.96,-12.94 20.99,-30.91 20.99,-50.67 z"
   id="path9525"
   inkscape:connector-curvature="0"
   style="fill:#5e4d8e" />
	<path
   class="st0"
   d="m 885.17,392.1 h -8.21 c 0,15.28 -6.17,29.04 -16.18,39.07 -10.02,10.01 -23.78,16.18 -39.07,16.18 -15.28,0 -29.04,-6.17 -39.07,-16.18 -10.01,-10.02 -16.18,-23.79 -16.18,-39.07 0,-15.28 6.17,-29.04 16.18,-39.07 10.02,-10.01 23.78,-16.18 39.07,-16.18 15.28,0 29.04,6.17 39.07,16.18 10.01,10.02 16.18,23.79 16.18,39.07 h 8.21 8.2 c 0,-19.76 -8.03,-37.73 -20.99,-50.67 -12.94,-12.96 -30.91,-20.99 -50.67,-20.99 -19.76,0 -37.73,8.03 -50.67,20.99 -12.96,12.94 -20.99,30.91 -20.99,50.67 0,19.76 8.03,37.73 20.99,50.67 12.94,12.96 30.91,20.99 50.67,20.99 19.76,0 37.73,-8.03 50.67,-20.99 12.96,-12.94 20.99,-30.91 20.99,-50.67 z"
   id="path9527"
   inkscape:connector-curvature="0"
   style="fill:#735bbf" />
	<polyline
   class="st1"
   points="653.98,684.76 653.98,798 670.39,798 670.39,684.76  "
   id="polyline9529"
   style="fill:#5e4d8e" />
	<polyline
   class="st0"
   points="816.45,684.76 816.45,798 832.86,798 832.86,684.76  "
   id="polyline9531"
   style="fill:#735bbf" />
	<polyline
   class="st1"
   points="721.27,532.14 721.27,798 737.68,798 737.68,532.14  "
   id="polyline9533"
   style="fill:#5e4d8e" />
	<polyline
   class="st0"
   points="882.1,578.09 882.1,798 898.51,798 898.51,578.09  "
   id="polyline9535"
   style="fill:#735bbf" />
	<path
   class="st1"
   d="m 653.65,455.37 c 4.03,0.44 8.12,0.6 12.24,0.6 8.2,0 16.52,-0.66 24.69,-1.28 8.16,-0.63 16.17,-1.24 23.63,-1.24 5,0 9.75,0.27 14.12,0.94 6.57,1.01 12.2,2.9 16.9,5.99 2.36,1.55 4.51,3.41 6.5,5.72 1.99,2.31 3.81,5.07 5.44,8.46 l 0.05,0.11 0.07,0.13 c 5.84,11.25 8.12,22.8 8.13,34.94 0.01,13.77 -3.04,28.24 -7.34,42.87 -4.29,14.64 -9.81,29.4 -14.45,43.91 l 7.82,2.5 -7.62,-3.05 c -6.56,16.41 -13.01,32.48 -21.26,47 l 14.27,8.1 c 8.98,-15.84 15.66,-32.6 22.23,-49.01 l 0.1,-0.26 0.09,-0.29 c 4.47,-13.98 10.05,-28.89 14.57,-44.29 4.51,-15.4 8,-31.33 8.01,-47.49 0.01,-14.22 -2.77,-28.67 -9.98,-42.51 l -7.28,3.79 7.4,-3.55 c -2.92,-6.1 -6.61,-11.22 -10.89,-15.34 -3.21,-3.09 -6.75,-5.62 -10.48,-7.63 -5.6,-3.01 -11.59,-4.87 -17.71,-5.97 -6.12,-1.1 -12.38,-1.48 -18.66,-1.48 -8.33,0 -16.73,0.66 -24.9,1.28 -8.17,0.63 -16.11,1.24 -23.42,1.24 -3.67,0 -7.18,-0.15 -10.47,-0.51 z"
   id="path9537"
   inkscape:connector-curvature="0"
   style="fill:#5e4d8e" />
	<path
   class="st0"
   d="m 815.84,506.16 c 4.03,0.44 8.12,0.6 12.24,0.6 8.2,0 16.52,-0.66 24.69,-1.28 8.16,-0.63 16.17,-1.24 23.63,-1.24 5,0 9.75,0.27 14.12,0.94 6.57,1.01 12.2,2.9 16.9,5.99 2.36,1.55 4.51,3.41 6.5,5.72 1.99,2.31 3.81,5.07 5.44,8.46 l 0.05,0.11 0.07,0.13 c 5.84,11.25 8.12,22.8 8.13,34.94 0.01,13.77 -3.04,28.24 -7.34,42.87 -4.29,14.64 -9.81,29.4 -14.45,43.91 l 7.82,2.5 -7.62,-3.05 c -6.56,16.41 -13.01,32.48 -21.26,47 l 14.27,8.1 c 8.98,-15.84 15.66,-32.6 22.23,-49.01 l 0.11,-0.27 0.09,-0.28 c 4.47,-13.98 10.05,-28.89 14.57,-44.29 4.51,-15.4 8,-31.33 8.01,-47.49 0.01,-14.22 -2.77,-28.67 -9.98,-42.51 l -7.28,3.79 7.4,-3.55 c -2.92,-6.1 -6.61,-11.22 -10.89,-15.34 -3.21,-3.09 -6.75,-5.62 -10.48,-7.63 -5.6,-3.01 -11.59,-4.87 -17.71,-5.97 -6.12,-1.1 -12.38,-1.48 -18.66,-1.48 -8.33,0 -16.73,0.66 -24.9,1.28 -8.17,0.63 -16.11,1.24 -23.42,1.24 -3.67,0 -7.18,-0.15 -10.47,-0.51 z"
   id="path9539"
   inkscape:connector-curvature="0"
   style="fill:#735bbf" />
</g>
</svg>