<?xml version="1.0" encoding="UTF-8" standalone="no"?>
<!-- Generator: Adobe Illustrator 25.2.1, SVG Export Plug-In . SVG Version: 6.00 Build 0)  -->

<svg
   xmlns:dc="http://purl.org/dc/elements/1.1/"
   xmlns:cc="http://creativecommons.org/ns#"
   xmlns:rdf="http://www.w3.org/1999/02/22-rdf-syntax-ns#"
   xmlns:svg="http://www.w3.org/2000/svg"
   xmlns="http://www.w3.org/2000/svg"
   xmlns:sodipodi="http://sodipodi.sourceforge.net/DTD/sodipodi-0.dtd"
   xmlns:inkscape="http://www.inkscape.org/namespaces/inkscape"
   version="1.1"
   id="icons"
   x="0px"
   y="0px"
   viewBox="0 0 2100 2100"
   xml:space="preserve"
   sodipodi:docname="4.svg"
   width="2100"
   height="2100"
   inkscape:version="0.92.4 (5da689c313, 2019-01-14)"><metadata
   id="metadata10716"><rdf:RDF><cc:Work
       rdf:about=""><dc:format>image/svg+xml</dc:format><dc:type
         rdf:resource="http://purl.org/dc/dcmitype/StillImage" /><dc:title></dc:title></cc:Work></rdf:RDF></metadata><defs
   id="defs10714" /><sodipodi:namedview
   pagecolor="#ffffff"
   bordercolor="#666666"
   borderopacity="1"
   objecttolerance="10"
   gridtolerance="10"
   guidetolerance="10"
   inkscape:pageopacity="0"
   inkscape:pageshadow="2"
   inkscape:window-width="1600"
   inkscape:window-height="841"
   id="namedview10712"
   showgrid="false"
   inkscape:zoom="0.15364583"
   inkscape:cx="-656.22682"
   inkscape:cy="452.31691"
   inkscape:window-x="0"
   inkscape:window-y="27"
   inkscape:window-maximized="1"
   inkscape:current-layer="icons" />
<style
   type="text/css"
   id="style10291">
	.st0{display:none;}
	.st1{display:inline;fill:none;stroke:#505050;stroke-width:2;stroke-miterlimit:10;}
	.st2{display:inline;fill:none;stroke:#505050;stroke-width:2;stroke-linecap:round;stroke-miterlimit:10;}
	.st3{display:inline;fill:none;stroke:#505050;stroke-width:2;stroke-linecap:round;stroke-linejoin:round;stroke-miterlimit:10;}
	.st4{display:inline;fill:none;stroke:#505050;stroke-width:2;stroke-linejoin:round;stroke-miterlimit:10;}
	.st5{display:inline;fill:none;stroke:#5E4D8E;stroke-width:16;stroke-miterlimit:10;}
	.st6{display:inline;fill:none;stroke:#735BBF;stroke-width:16;stroke-miterlimit:10;}
	.st7{fill:none;stroke:#735BBF;stroke-width:16.5998;stroke-miterlimit:10;}
	.st8{fill:none;stroke:#5E4D8E;stroke-width:16.5998;stroke-miterlimit:10;}
</style>
<g
   class="st0"
   id="g10311"
   style="display:none"
   transform="translate(0,1716)">
	<path
   class="st1"
   d="m 77,74 c 1.95,0 4,-2.05 4,-4 v -5 c 0,-3.3 -3,-5 -8,-5 -5,0 -8,1.7 -8,5 v 5 c 0,1.95 2.05,4 4,4"
   id="path10293"
   inkscape:connector-curvature="0"
   style="display:inline;fill:none;stroke:#505050;stroke-width:2;stroke-miterlimit:10" />
	<path
   class="st1"
   d="m 73,57 c 1.75,0 3,-1.31 3,-3.2 V 52.2 C 76,50.31 74.75,49 73,49 c -1.75,0 -3,1.31 -3,3.2 v 1.6 c 0,1.89 1.25,3.2 3,3.2 z"
   id="path10295"
   inkscape:connector-curvature="0"
   style="display:inline;fill:none;stroke:#505050;stroke-width:2;stroke-miterlimit:10" />
	<line
   class="st1"
   x1="77"
   y1="85"
   x2="77"
   y2="66"
   id="line10297"
   style="display:inline;fill:none;stroke:#505050;stroke-width:2;stroke-miterlimit:10" />
	<line
   class="st1"
   x1="69"
   y1="66"
   x2="69"
   y2="85"
   id="line10299"
   style="display:inline;fill:none;stroke:#505050;stroke-width:2;stroke-miterlimit:10" />
	<line
   class="st1"
   x1="73"
   y1="73"
   x2="73"
   y2="85"
   id="line10301"
   style="display:inline;fill:none;stroke:#505050;stroke-width:2;stroke-miterlimit:10" />
	<path
   class="st2"
   d="M 80.03,79.95 C 83.62,81.02 86,82.88 86,85 c 0,3.31 -5.82,6 -13,6 -7.18,0 -13,-2.69 -13,-6 0,-2.12 2.38,-3.99 5.98,-5.05"
   id="path10303"
   inkscape:connector-curvature="0"
   style="display:inline;fill:none;stroke:#505050;stroke-width:2;stroke-linecap:round;stroke-miterlimit:10" />
	<line
   class="st2"
   x1="54"
   y1="85"
   x2="64"
   y2="85"
   id="line10305"
   style="display:inline;fill:none;stroke:#505050;stroke-width:2;stroke-linecap:round;stroke-miterlimit:10" />
	<line
   class="st2"
   x1="82"
   y1="85"
   x2="92"
   y2="85"
   id="line10307"
   style="display:inline;fill:none;stroke:#505050;stroke-width:2;stroke-linecap:round;stroke-miterlimit:10" />
	<line
   class="st2"
   x1="73"
   y1="88"
   x2="73"
   y2="95"
   id="line10309"
   style="display:inline;fill:none;stroke:#505050;stroke-width:2;stroke-linecap:round;stroke-miterlimit:10" />
</g>
<g
   class="st0"
   id="g10337"
   style="display:none"
   transform="translate(0,1716)">
	<path
   class="st3"
   d="m 166,86 c -1,-2 -2.02,-2.28 -2.02,-2.28 -0.62,0.94 -0.98,2.07 -0.98,3.28 0,3.31 2.69,6 6,6 3.31,0 6,-2.69 6,-6 0,-1.93 -1.2,-3.62 -2.33,-4.75 C 171.54,81.12 170,80 170,76 v -3"
   id="path10313"
   inkscape:connector-curvature="0"
   style="display:inline;fill:none;stroke:#505050;stroke-width:2;stroke-linecap:round;stroke-linejoin:round;stroke-miterlimit:10" />
	<path
   class="st3"
   d="m 170,66 v 0 c -1.1,0 -2,0.9 -2,2 v 3 c 0,1.1 0.9,2 2,2 v 0 c 1.1,0 2,-0.9 2,-2 v -3 c 0,-1.1 -0.9,-2 -2,-2 z"
   id="path10315"
   inkscape:connector-curvature="0"
   style="display:inline;fill:none;stroke:#505050;stroke-width:2;stroke-linecap:round;stroke-linejoin:round;stroke-miterlimit:10" />
	<line
   class="st3"
   x1="170"
   y1="66"
   x2="170"
   y2="49"
   id="line10317"
   style="display:inline;fill:none;stroke:#505050;stroke-width:2;stroke-linecap:round;stroke-linejoin:round;stroke-miterlimit:10" />
	<path
   class="st4"
   d="m 148.77,70.03 c -0.82,-0.86 -3.38,-3.93 -8.84,-4.99 1.2,1.68 2.66,4.55 2.25,6.63"
   id="path10319"
   inkscape:connector-curvature="0"
   style="display:inline;fill:none;stroke:#505050;stroke-width:2;stroke-linejoin:round;stroke-miterlimit:10" />
	<path
   class="st4"
   d="m 142.92,78.53 c 0.5,2.31 -0.01,5.81 -2.53,9.47 4.68,-1.31 7.21,-3 8.59,-4.69 5.78,0.39 11.07,-1.32 13.41,-5.05 1.19,-2.01 0.39,-3.24 -0.2,-3.79 -0.35,-0.33 -4.89,-4.8 -8.74,-4.8 -8.59,0 -15.31,3.65 -16.45,4.32 -2,-4 -6,-6 -8,-7 0,0 3,7 3,9 0,2 -3,8 -3,8 4,-2 7,-4 8,-6 2.09,1.4 3.41,2.68 5.98,3.73"
   id="path10321"
   inkscape:connector-curvature="0"
   style="display:inline;fill:none;stroke:#505050;stroke-width:2;stroke-linejoin:round;stroke-miterlimit:10" />
	<line
   class="st4"
   x1="156"
   y1="76"
   x2="158"
   y2="76"
   id="line10323"
   style="display:inline;fill:none;stroke:#505050;stroke-width:2;stroke-linejoin:round;stroke-miterlimit:10" />
	<line
   class="st4"
   x1="162"
   y1="55"
   x2="164"
   y2="55"
   id="line10325"
   style="display:inline;fill:none;stroke:#505050;stroke-width:2;stroke-linejoin:round;stroke-miterlimit:10" />
	<line
   class="st4"
   x1="162"
   y1="70"
   x2="164"
   y2="70"
   id="line10327"
   style="display:inline;fill:none;stroke:#505050;stroke-width:2;stroke-linejoin:round;stroke-miterlimit:10" />
	<path
   class="st4"
   d="m 155.97,82.66 c -3.04,0 -4.97,-3.12 -4.97,-6.16 0,-1.2 0.29,-2.12 0.89,-2.92"
   id="path10329"
   inkscape:connector-curvature="0"
   style="display:inline;fill:none;stroke:#505050;stroke-width:2;stroke-linejoin:round;stroke-miterlimit:10" />
	<line
   class="st4"
   x1="148.97"
   y1="83.309998"
   x2="148.57001"
   y2="80.980003"
   id="line10331"
   style="display:inline;fill:none;stroke:#505050;stroke-width:2;stroke-linejoin:round;stroke-miterlimit:10" />
	<circle
   class="st4"
   cx="153"
   cy="53"
   r="3"
   id="circle10333"
   style="display:inline;fill:none;stroke:#505050;stroke-width:2;stroke-linejoin:round;stroke-miterlimit:10" />
	<circle
   class="st4"
   cx="160"
   cy="62"
   r="3"
   id="circle10335"
   style="display:inline;fill:none;stroke:#505050;stroke-width:2;stroke-linejoin:round;stroke-miterlimit:10" />
</g>
<g
   class="st0"
   id="g10369"
   style="display:none"
   transform="translate(0,1716)">
	<path
   class="st1"
   d="m 233,95 h -19 c -1.1,0 -2,-0.9 -2,-2 V 56 c 0,-1.1 0.9,-2 2,-2 h 4"
   id="path10339"
   inkscape:connector-curvature="0"
   style="display:inline;fill:none;stroke:#505050;stroke-width:2;stroke-miterlimit:10" />
	<path
   class="st1"
   d="m 242,54 h 4 c 1.1,0 2,0.9 2,2 v 7"
   id="path10341"
   inkscape:connector-curvature="0"
   style="display:inline;fill:none;stroke:#505050;stroke-width:2;stroke-miterlimit:10" />
	<polyline
   class="st1"
   points="233,91 216,91 216,58 218,58  "
   id="polyline10343"
   style="display:inline;fill:none;stroke:#505050;stroke-width:2;stroke-miterlimit:10" />
	<polyline
   class="st1"
   points="242,58 244,58 244,63  "
   id="polyline10345"
   style="display:inline;fill:none;stroke:#505050;stroke-width:2;stroke-miterlimit:10" />
	<path
   class="st1"
   d="m 237,53 h -3 c 0,-2.21 -1.79,-4 -4,-4 -2.21,0 -4,1.79 -4,4 h -3 c -1.66,0 -3,1.34 -3,3 v 3 h 20 v -3 c 0,-1.66 -1.34,-3 -3,-3 z"
   id="path10347"
   inkscape:connector-curvature="0"
   style="display:inline;fill:none;stroke:#505050;stroke-width:2;stroke-miterlimit:10" />
	<line
   class="st1"
   x1="230"
   y1="52"
   x2="230"
   y2="54"
   id="line10349"
   style="display:inline;fill:none;stroke:#505050;stroke-width:2;stroke-miterlimit:10" />
	<polyline
   class="st1"
   points="222,68 224,70 228,66  "
   id="polyline10351"
   style="display:inline;fill:none;stroke:#505050;stroke-width:2;stroke-miterlimit:10" />
	<polyline
   class="st1"
   points="222,75 224,77 228,73  "
   id="polyline10353"
   style="display:inline;fill:none;stroke:#505050;stroke-width:2;stroke-miterlimit:10" />
	<polyline
   class="st1"
   points="222,82 224,84 228,80  "
   id="polyline10355"
   style="display:inline;fill:none;stroke:#505050;stroke-width:2;stroke-miterlimit:10" />
	<polyline
   class="st1"
   points="246,76 246,78 250,82 248,84 248,87  "
   id="polyline10357"
   style="display:inline;fill:none;stroke:#505050;stroke-width:2;stroke-miterlimit:10" />
	<path
   class="st1"
   d="m 247,70 4,4 v 1 l -1,2 -2,-1 h -3 c -1.06,0 -2,-0.94 -2,-2 v -1"
   id="path10359"
   inkscape:connector-curvature="0"
   style="display:inline;fill:none;stroke:#505050;stroke-width:2;stroke-miterlimit:10" />
	<line
   class="st1"
   x1="238"
   y1="91"
   x2="243"
   y2="91"
   id="line10361"
   style="display:inline;fill:none;stroke:#505050;stroke-width:2;stroke-miterlimit:10" />
	<line
   class="st1"
   x1="246"
   y1="91"
   x2="250"
   y2="91"
   id="line10363"
   style="display:inline;fill:none;stroke:#505050;stroke-width:2;stroke-miterlimit:10" />
	<path
   class="st4"
   d="m 243,87 h -4 c -0.55,0 -1,0.45 -1,1 v 3 h -1 c -0.55,0 -1,0.45 -1,1 v 3 h 16 v -3 c 0,-0.55 -0.45,-1 -1,-1 h -1 v -3 c 0,-0.55 -0.45,-1 -1,-1 h -3"
   id="path10365"
   inkscape:connector-curvature="0"
   style="display:inline;fill:none;stroke:#505050;stroke-width:2;stroke-linejoin:round;stroke-miterlimit:10" />
	<path
   class="st1"
   d="m 240,87 v -7 l -2,-2 v -5 c 0,-3.87 3.13,-7 7,-7 2.24,0 4.23,1.05 5.51,2.68"
   id="path10367"
   inkscape:connector-curvature="0"
   style="display:inline;fill:none;stroke:#505050;stroke-width:2;stroke-miterlimit:10" />
</g>
<g
   class="st0"
   id="g10387"
   style="display:none"
   transform="translate(0,1716)">
	<polyline
   class="st1"
   points="320,89 324.39,83 327.63,85.08 330,90 333,90 335,93.05  "
   id="polyline10371"
   style="display:inline;fill:none;stroke:#505050;stroke-width:2;stroke-miterlimit:10" />
	<polyline
   class="st1"
   points="289,89 293,81 297,81 299,77 303,75 308,84 313,84 320,95  "
   id="polyline10373"
   style="display:inline;fill:none;stroke:#505050;stroke-width:2;stroke-miterlimit:10" />
	<line
   class="st1"
   x1="303"
   y1="75"
   x2="303"
   y2="52"
   id="line10375"
   style="display:inline;fill:none;stroke:#505050;stroke-width:2;stroke-miterlimit:10" />
	<path
   class="st1"
   d="m 296,63 c -2.23,0 -4,1.27 -4,3 0,-1.73 -1.77,-3 -4,-3"
   id="path10377"
   inkscape:connector-curvature="0"
   style="display:inline;fill:none;stroke:#505050;stroke-width:2;stroke-miterlimit:10" />
	<path
   class="st1"
   d="m 336,55 c -2.23,0 -4,1.27 -4,3 0,-1.73 -1.77,-3 -4,-3"
   id="path10379"
   inkscape:connector-curvature="0"
   style="display:inline;fill:none;stroke:#505050;stroke-width:2;stroke-miterlimit:10" />
	<path
   class="st1"
   d="m 324,74 c -2.23,0 -4,1.27 -4,3 0,-1.73 -1.77,-3 -4,-3"
   id="path10381"
   inkscape:connector-curvature="0"
   style="display:inline;fill:none;stroke:#505050;stroke-width:2;stroke-miterlimit:10" />
	<polyline
   class="st1"
   points="303,55 313,55 313,62 303,62  "
   id="polyline10383"
   style="display:inline;fill:none;stroke:#505050;stroke-width:2;stroke-miterlimit:10" />
	<polyline
   class="st1"
   points="313,58 322,58 322,65 312,65 312,62  "
   id="polyline10385"
   style="display:inline;fill:none;stroke:#505050;stroke-width:2;stroke-miterlimit:10" />
</g>
<g
   class="st0"
   id="g10409"
   style="display:none"
   transform="translate(0,1716)">
	<path
   class="st1"
   d="m 392,52 c -11.05,0 -20,8.95 -20,20 v 1 h -2 l 5,7 4,-7 h -2 v -1 c 0,-8.28 6.72,-15 15,-15 5.34,0 10.03,2.79 12.69,7"
   id="path10389"
   inkscape:connector-curvature="0"
   style="display:inline;fill:none;stroke:#505050;stroke-width:2;stroke-miterlimit:10" />
	<path
   class="st1"
   d="m 402.08,54.72 c 0.7,0.41 1.36,0.85 2,1.34"
   id="path10391"
   inkscape:connector-curvature="0"
   style="display:inline;fill:none;stroke:#505050;stroke-width:2;stroke-miterlimit:10" />
	<path
   class="st1"
   d="m 398.11,52.95 c 0.65,0.21 1.29,0.45 1.91,0.72"
   id="path10393"
   inkscape:connector-curvature="0"
   style="display:inline;fill:none;stroke:#505050;stroke-width:2;stroke-miterlimit:10" />
	<path
   class="st1"
   d="m 394.04,52.1 c 0.63,0.06 1.25,0.16 1.86,0.28"
   id="path10395"
   inkscape:connector-curvature="0"
   style="display:inline;fill:none;stroke:#505050;stroke-width:2;stroke-miterlimit:10" />
	<path
   class="st1"
   d="M 392.08,92 C 403.13,92 412,83.05 412,72 v -1 h 2 l -5,-7 -4,7 h 2 v 1 c 0,8.28 -6.54,15 -14.83,15 -5.34,0 -10.03,-2.79 -12.69,-7"
   id="path10397"
   inkscape:connector-curvature="0"
   style="display:inline;fill:none;stroke:#505050;stroke-width:2;stroke-miterlimit:10" />
	<path
   class="st1"
   d="m 382,89.28 c -0.7,-0.41 -1.36,-0.85 -2,-1.34"
   id="path10399"
   inkscape:connector-curvature="0"
   style="display:inline;fill:none;stroke:#505050;stroke-width:2;stroke-miterlimit:10" />
	<path
   class="st1"
   d="m 385.98,91.05 c -0.65,-0.21 -1.29,-0.45 -1.91,-0.72"
   id="path10401"
   inkscape:connector-curvature="0"
   style="display:inline;fill:none;stroke:#505050;stroke-width:2;stroke-miterlimit:10" />
	<path
   class="st1"
   d="m 390.04,91.9 c -0.63,-0.06 -1.25,-0.16 -1.86,-0.28"
   id="path10403"
   inkscape:connector-curvature="0"
   style="display:inline;fill:none;stroke:#505050;stroke-width:2;stroke-miterlimit:10" />
	<path
   class="st4"
   d="m 395.05,71.98 c 0,1.67 -1.35,3.02 -3.02,3.02 -1.67,0 -3.02,-1.35 -3.02,-3.02 0,-1.67 1.35,-3.02 3.02,-3.02 1.66,-0.01 3.02,1.35 3.02,3.02 z"
   id="path10405"
   inkscape:connector-curvature="0"
   style="display:inline;fill:none;stroke:#505050;stroke-width:2;stroke-linejoin:round;stroke-miterlimit:10" />
	<path
   class="st1"
   d="m 399.02,71.98 c 0,-0.56 -0.07,-1.09 -0.19,-1.61 l 1.96,-1.13 -2,-3.46 -1.96,1.13 C 396.04,66.16 395.07,65.59 394,65.27 V 63 h -4 v 2.28 c -1.07,0.32 -2.02,0.89 -2.8,1.64 l -1.99,-1.15 -2,3.46 2,1.16 c -0.12,0.51 -0.19,1.04 -0.19,1.59 0,0.56 0.07,1.1 0.2,1.63 l -2.02,1.16 2,3.46 2.02,-1.17 c 0.78,0.73 1.72,1.29 2.77,1.61 V 81 h 4 v -2.31 c 1.06,-0.31 2.02,-0.87 2.8,-1.61 l 1.99,1.15 2,-3.46 -1.98,-1.14 c 0.15,-0.53 0.22,-1.08 0.22,-1.65 z"
   id="path10407"
   inkscape:connector-curvature="0"
   style="display:inline;fill:none;stroke:#505050;stroke-width:2;stroke-miterlimit:10" />
</g>
<g
   class="st0"
   id="g10419"
   style="display:none"
   transform="translate(0,1716)">
	<path
   class="st4"
   d="m 384.79,135.91 3.67,3.67 c -0.08,-0.63 0.14,-1.36 0.61,-1.83 1.01,-1.01 2.65,-1.01 3.67,0 1.01,1.01 1.01,2.65 0,3.67 -0.47,0.47 -1.18,0.67 -1.83,0.61 l 3.67,3.67 -3.67,3.67 c 1.06,-0.03 2,0.34 2.39,1.56 0.3,0.96 0.14,2.05 -0.59,2.75 -1.02,0.98 -2.63,0.97 -3.63,-0.03 -0.47,-0.47 -0.71,-1.17 -0.61,-1.83 l -3.67,3.67 -3.67,-3.67 c 0.65,0.06 1.36,-0.14 1.83,-0.61 1.01,-1.01 1.01,-2.65 0,-3.67 -1.01,-1.01 -2.65,-1.01 -3.67,0 -0.47,0.47 -0.69,1.2 -0.61,1.83 l -3.67,-3.67 z"
   id="path10411"
   inkscape:connector-curvature="0"
   style="display:inline;fill:none;stroke:#505050;stroke-width:2;stroke-linejoin:round;stroke-miterlimit:10" />
	<circle
   class="st3"
   cx="386"
   cy="146"
   r="16"
   id="circle10413"
   style="display:inline;fill:none;stroke:#505050;stroke-width:2;stroke-linecap:round;stroke-linejoin:round;stroke-miterlimit:10" />
	
		<rect
   x="404.88"
   y="157.81"
   transform="matrix(0.7071,-0.7071,0.7071,0.7071,1.1207,336.7056)"
   class="st3"
   width="4.2399998"
   height="18.379999"
   id="rect10415"
   style="display:inline;fill:none;stroke:#505050;stroke-width:2;stroke-linecap:round;stroke-linejoin:round;stroke-miterlimit:10" />
	<line
   class="st3"
   x1="400.5"
   y1="160.5"
   x2="397.31"
   y2="157.31"
   id="line10417"
   style="display:inline;fill:none;stroke:#505050;stroke-width:2;stroke-linecap:round;stroke-linejoin:round;stroke-miterlimit:10" />
</g>
<g
   class="st0"
   id="g10447"
   style="display:none"
   transform="translate(0,1716)">
	<path
   class="st1"
   d="m 299,170 v -2 c 0,-1.1 0.9,-2 2,-2 h 6"
   id="path10421"
   inkscape:connector-curvature="0"
   style="display:inline;fill:none;stroke:#505050;stroke-width:2;stroke-miterlimit:10" />
	<path
   class="st1"
   d="m 310,166 h 3 c 1.1,0 2,0.9 2,2 v 2"
   id="path10423"
   inkscape:connector-curvature="0"
   style="display:inline;fill:none;stroke:#505050;stroke-width:2;stroke-miterlimit:10" />
	<path
   class="st1"
   d="m 308,170 h -10 c -1.1,0 -2,0.89 -2,2 v 3 h 22 v -3 c 0,-1.1 -0.9,-2 -2,-2 h -5"
   id="path10425"
   inkscape:connector-curvature="0"
   style="display:inline;fill:none;stroke:#505050;stroke-width:2;stroke-miterlimit:10" />
	<polyline
   class="st1"
   points="309,139 309,136 312,136 312,132 309,132 309,129 305,129 305,132 302,132 302,136 305,136 305,139     "
   id="polyline10427"
   style="display:inline;fill:none;stroke:#505050;stroke-width:2;stroke-miterlimit:10" />
	<path
   class="st1"
   d="m 312,166 -1,-14 h 3 c 0.55,0 1,-0.45 1,-1 v -2 c 0,-0.55 -0.45,-1 -1,-1 h -1.14 l 2.14,-8 c 0,-0.55 -0.45,-1 -1,-1 h -14 c -0.55,0 -1,0.45 -1,1 l 2.14,8 H 300 c -0.55,0 -1,0.45 -1,1 v 2 c 0,0.55 0.45,1 1,1 h 3 l -1,14"
   id="path10429"
   inkscape:connector-curvature="0"
   style="display:inline;fill:none;stroke:#505050;stroke-width:2;stroke-miterlimit:10" />
	<line
   class="st1"
   x1="301"
   y1="148"
   x2="306"
   y2="148"
   id="line10431"
   style="display:inline;fill:none;stroke:#505050;stroke-width:2;stroke-miterlimit:10" />
	<line
   class="st1"
   x1="313"
   y1="148"
   x2="309"
   y2="148"
   id="line10433"
   style="display:inline;fill:none;stroke:#505050;stroke-width:2;stroke-miterlimit:10" />
	<line
   class="st1"
   x1="303"
   y1="152"
   x2="306"
   y2="152"
   id="line10435"
   style="display:inline;fill:none;stroke:#505050;stroke-width:2;stroke-miterlimit:10" />
	<line
   class="st1"
   x1="311"
   y1="152"
   x2="309"
   y2="152"
   id="line10437"
   style="display:inline;fill:none;stroke:#505050;stroke-width:2;stroke-miterlimit:10" />
	<path
   class="st1"
   d="m 315,160 h 12 c 0.55,0 1,0.45 1,1 v 2 c 0,0.55 -0.45,1 -1,1 h -9"
   id="path10439"
   inkscape:connector-curvature="0"
   style="display:inline;fill:none;stroke:#505050;stroke-width:2;stroke-miterlimit:10" />
	<path
   class="st1"
   d="m 321,175 h 8 v -2 c 0,-1.1 -0.9,-2 -2,-2 h -4"
   id="path10441"
   inkscape:connector-curvature="0"
   style="display:inline;fill:none;stroke:#505050;stroke-width:2;stroke-miterlimit:10" />
	<line
   class="st1"
   x1="326"
   y1="164"
   x2="326"
   y2="171"
   id="line10443"
   style="display:inline;fill:none;stroke:#505050;stroke-width:2;stroke-miterlimit:10" />
	<path
   class="st1"
   d="m 319.04,149.33 c 0.61,-0.21 1.27,-0.33 1.96,-0.33 3.31,0 6,2.69 6,6 0,2.07 -1.05,3.9 -2.65,4.98"
   id="path10445"
   inkscape:connector-curvature="0"
   style="display:inline;fill:none;stroke:#505050;stroke-width:2;stroke-miterlimit:10" />
</g>
<g
   class="st0"
   id="g10473"
   style="display:none"
   transform="translate(0,1716)">
	<polyline
   class="st1"
   points="153,131 173,131 173,173 145,173  "
   id="polyline10449"
   style="display:inline;fill:none;stroke:#505050;stroke-width:2;stroke-miterlimit:10" />
	<polyline
   class="st1"
   points="140,173 131,173 131,131 148,131  "
   id="polyline10451"
   style="display:inline;fill:none;stroke:#505050;stroke-width:2;stroke-miterlimit:10" />
	<polyline
   class="st1"
   points="137,142 137,137 167,137 167,142  "
   id="polyline10453"
   style="display:inline;fill:none;stroke:#505050;stroke-width:2;stroke-miterlimit:10" />
	<polyline
   class="st1"
   points="152,167 137,167 137,147  "
   id="polyline10455"
   style="display:inline;fill:none;stroke:#505050;stroke-width:2;stroke-miterlimit:10" />
	<polyline
   class="st1"
   points="167,147 167,167 157,167  "
   id="polyline10457"
   style="display:inline;fill:none;stroke:#505050;stroke-width:2;stroke-miterlimit:10" />
	<polyline
   class="st1"
   points="143,150 143,143 161,143 161,162  "
   id="polyline10459"
   style="display:inline;fill:none;stroke:#505050;stroke-width:2;stroke-miterlimit:10" />
	<polyline
   class="st1"
   points="149,155 149,149 155,149 155,161 143,161 143,155  "
   id="polyline10461"
   style="display:inline;fill:none;stroke:#505050;stroke-width:2;stroke-miterlimit:10" />
	<line
   class="st1"
   x1="147"
   y1="161"
   x2="147"
   y2="167"
   id="line10463"
   style="display:inline;fill:none;stroke:#505050;stroke-width:2;stroke-miterlimit:10" />
	<line
   class="st1"
   x1="149"
   y1="143"
   x2="149"
   y2="137"
   id="line10465"
   style="display:inline;fill:none;stroke:#505050;stroke-width:2;stroke-miterlimit:10" />
	<line
   class="st1"
   x1="160"
   y1="137"
   x2="160"
   y2="131"
   id="line10467"
   style="display:inline;fill:none;stroke:#505050;stroke-width:2;stroke-miterlimit:10" />
	<line
   class="st1"
   x1="162"
   y1="167"
   x2="162"
   y2="173"
   id="line10469"
   style="display:inline;fill:none;stroke:#505050;stroke-width:2;stroke-miterlimit:10" />
	<line
   class="st1"
   x1="137"
   y1="156"
   x2="131"
   y2="156"
   id="line10471"
   style="display:inline;fill:none;stroke:#505050;stroke-width:2;stroke-miterlimit:10" />
</g>
<g
   class="st0"
   id="g10495"
   style="display:none"
   transform="translate(0,1716)">
	<line
   class="st5"
   x1="232"
   y1="64"
   x2="288"
   y2="120"
   id="line10475"
   style="display:inline;fill:none;stroke:#5e4d8e;stroke-width:16;stroke-miterlimit:10" />
	<line
   class="st5"
   x1="232"
   y1="120"
   x2="288"
   y2="64"
   id="line10477"
   style="display:inline;fill:none;stroke:#5e4d8e;stroke-width:16;stroke-miterlimit:10" />
	<circle
   class="st5"
   cx="348"
   cy="188"
   r="28"
   id="circle10479"
   style="display:inline;fill:none;stroke:#5e4d8e;stroke-width:16;stroke-miterlimit:10" />
	<path
   class="st5"
   d="m 264,224 v -34.41 c 0,-15.6 9.21,-29.78 23.6,-36.32 l 40.81,-18.55 c 14.38,-6.54 23.6,-20.72 23.6,-36.32 V 64"
   id="path10481"
   inkscape:connector-curvature="0"
   style="display:inline;fill:none;stroke:#5e4d8e;stroke-width:16;stroke-miterlimit:10" />
	<polyline
   class="st5"
   points="384,96 352,64 320,96  "
   id="polyline10483"
   style="display:inline;fill:none;stroke:#5e4d8e;stroke-width:16;stroke-miterlimit:10" />
	<polyline
   class="st5"
   points="192,120 192,24 416,24 416,256 192,256 192,200  "
   id="polyline10485"
   style="display:inline;fill:none;stroke:#5e4d8e;stroke-width:16;stroke-miterlimit:10" />
	<path
   class="st6"
   d="m 120,120 c 18.32,0 32,-15.35 32,-34.28 V 74.28 C 152,55.35 138.32,40 120,40 101.68,40 88,55.35 88,74.28 v 11.43 c 0,18.94 13.68,34.29 32,34.29 z"
   id="path10487"
   inkscape:connector-curvature="0"
   style="display:inline;fill:none;stroke:#735bbf;stroke-width:16;stroke-miterlimit:10" />
	<path
   class="st6"
   d="M 160,384 V 176 h 48 c 24.14,0 32,-14.25 32,-32 -12.5,0 -137.28,0 -152,0 -28.67,0 -40,12.09 -40,48 v 56 c 0,17.16 6.84,32 24,32 h 8"
   id="path10489"
   inkscape:connector-curvature="0"
   style="display:inline;fill:none;stroke:#735bbf;stroke-width:16;stroke-miterlimit:10" />
	<line
   class="st6"
   x1="120"
   y1="256"
   x2="120"
   y2="384"
   id="line10491"
   style="display:inline;fill:none;stroke:#735bbf;stroke-width:16;stroke-miterlimit:10" />
	<line
   class="st6"
   x1="80"
   y1="192"
   x2="80"
   y2="384"
   id="line10493"
   style="display:inline;fill:none;stroke:#735bbf;stroke-width:16;stroke-miterlimit:10" />
</g>
<g
   class="st0"
   id="g10537"
   style="display:none"
   transform="translate(0,1716)">
	<circle
   class="st4"
   cx="72"
   cy="232"
   r="13"
   id="circle10497"
   style="display:inline;fill:none;stroke:#505050;stroke-width:2;stroke-linejoin:round;stroke-miterlimit:10" />
	<circle
   class="st4"
   cx="72"
   cy="232"
   r="7"
   id="circle10499"
   style="display:inline;fill:none;stroke:#505050;stroke-width:2;stroke-linejoin:round;stroke-miterlimit:10" />
	<circle
   class="st4"
   cx="72"
   cy="232"
   r="3"
   id="circle10501"
   style="display:inline;fill:none;stroke:#505050;stroke-width:2;stroke-linejoin:round;stroke-miterlimit:10" />
	<circle
   class="st4"
   cx="72"
   cy="232"
   r="17"
   id="circle10503"
   style="display:inline;fill:none;stroke:#505050;stroke-width:2;stroke-linejoin:round;stroke-miterlimit:10" />
	<path
   class="st4"
   d="m 74,213 v -2.67 c 0,-0.74 -0.9,-1.33 -2,-1.33 -1.1,0 -2,0.6 -2,1.33 V 213"
   id="path10505"
   inkscape:connector-curvature="0"
   style="display:inline;fill:none;stroke:#505050;stroke-width:2;stroke-linejoin:round;stroke-miterlimit:10" />
	<path
   class="st4"
   d="m 59.98,217.15 -1.89,-1.89 c -0.52,-0.52 -1.58,-0.31 -2.36,0.47 -0.78,0.78 -0.99,1.84 -0.47,2.36 l 1.89,1.89"
   id="path10507"
   inkscape:connector-curvature="0"
   style="display:inline;fill:none;stroke:#505050;stroke-width:2;stroke-linejoin:round;stroke-miterlimit:10" />
	<path
   class="st4"
   d="m 53,230 h -2.67 c -0.74,0 -1.33,0.9 -1.33,2 0,1.1 0.6,2 1.33,2 H 53"
   id="path10509"
   inkscape:connector-curvature="0"
   style="display:inline;fill:none;stroke:#505050;stroke-width:2;stroke-linejoin:round;stroke-miterlimit:10" />
	<path
   class="st4"
   d="m 57.15,244.02 -1.89,1.89 c -0.52,0.52 -0.31,1.58 0.47,2.36 0.78,0.78 1.84,0.99 2.36,0.47 l 1.89,-1.89"
   id="path10511"
   inkscape:connector-curvature="0"
   style="display:inline;fill:none;stroke:#505050;stroke-width:2;stroke-linejoin:round;stroke-miterlimit:10" />
	<path
   class="st4"
   d="m 70,251 v 2.67 c 0,0.74 0.9,1.33 2,1.33 1.1,0 2,-0.6 2,-1.33 V 251"
   id="path10513"
   inkscape:connector-curvature="0"
   style="display:inline;fill:none;stroke:#505050;stroke-width:2;stroke-linejoin:round;stroke-miterlimit:10" />
	<path
   class="st4"
   d="m 84.02,246.85 1.89,1.89 c 0.52,0.52 1.58,0.31 2.36,-0.47 0.78,-0.78 0.99,-1.84 0.47,-2.36 l -1.89,-1.89"
   id="path10515"
   inkscape:connector-curvature="0"
   style="display:inline;fill:none;stroke:#505050;stroke-width:2;stroke-linejoin:round;stroke-miterlimit:10" />
	<path
   class="st4"
   d="m 91,234 h 2.67 c 0.74,0 1.33,-0.9 1.33,-2 0,-1.1 -0.6,-2 -1.33,-2 H 91"
   id="path10517"
   inkscape:connector-curvature="0"
   style="display:inline;fill:none;stroke:#505050;stroke-width:2;stroke-linejoin:round;stroke-miterlimit:10" />
	<path
   class="st4"
   d="m 86.85,219.98 1.89,-1.89 c 0.52,-0.52 0.31,-1.58 -0.47,-2.36 -0.78,-0.78 -1.84,-0.99 -2.36,-0.47 l -1.89,1.89"
   id="path10519"
   inkscape:connector-curvature="0"
   style="display:inline;fill:none;stroke:#505050;stroke-width:2;stroke-linejoin:round;stroke-miterlimit:10" />
	<line
   class="st4"
   x1="72"
   y1="219"
   x2="72"
   y2="225"
   id="line10521"
   style="display:inline;fill:none;stroke:#505050;stroke-width:2;stroke-linejoin:round;stroke-miterlimit:10" />
	<line
   class="st4"
   x1="62.810001"
   y1="222.81"
   x2="67.050003"
   y2="227.05"
   id="line10523"
   style="display:inline;fill:none;stroke:#505050;stroke-width:2;stroke-linejoin:round;stroke-miterlimit:10" />
	<line
   class="st4"
   x1="59"
   y1="232"
   x2="65"
   y2="232"
   id="line10525"
   style="display:inline;fill:none;stroke:#505050;stroke-width:2;stroke-linejoin:round;stroke-miterlimit:10" />
	<line
   class="st4"
   x1="62.810001"
   y1="241.19"
   x2="67.050003"
   y2="236.95"
   id="line10527"
   style="display:inline;fill:none;stroke:#505050;stroke-width:2;stroke-linejoin:round;stroke-miterlimit:10" />
	<line
   class="st4"
   x1="72"
   y1="245"
   x2="72"
   y2="239"
   id="line10529"
   style="display:inline;fill:none;stroke:#505050;stroke-width:2;stroke-linejoin:round;stroke-miterlimit:10" />
	<line
   class="st4"
   x1="81.190002"
   y1="241.19"
   x2="76.949997"
   y2="236.95"
   id="line10531"
   style="display:inline;fill:none;stroke:#505050;stroke-width:2;stroke-linejoin:round;stroke-miterlimit:10" />
	<line
   class="st4"
   x1="85"
   y1="232"
   x2="79"
   y2="232"
   id="line10533"
   style="display:inline;fill:none;stroke:#505050;stroke-width:2;stroke-linejoin:round;stroke-miterlimit:10" />
	<line
   class="st4"
   x1="81.190002"
   y1="222.81"
   x2="76.949997"
   y2="227.05"
   id="line10535"
   style="display:inline;fill:none;stroke:#505050;stroke-width:2;stroke-linejoin:round;stroke-miterlimit:10" />
</g>
<g
   class="st0"
   id="g10553"
   style="display:none"
   transform="translate(0,1716)">
	<line
   class="st4"
   x1="232"
   y1="209"
   x2="232"
   y2="227"
   id="line10539"
   style="display:inline;fill:none;stroke:#505050;stroke-width:2;stroke-linejoin:round;stroke-miterlimit:10" />
	<line
   class="st4"
   x1="232"
   y1="237"
   x2="232"
   y2="255"
   id="line10541"
   style="display:inline;fill:none;stroke:#505050;stroke-width:2;stroke-linejoin:round;stroke-miterlimit:10" />
	<line
   class="st4"
   x1="255"
   y1="232"
   x2="237"
   y2="232"
   id="line10543"
   style="display:inline;fill:none;stroke:#505050;stroke-width:2;stroke-linejoin:round;stroke-miterlimit:10" />
	<line
   class="st4"
   x1="227"
   y1="232"
   x2="209"
   y2="232"
   id="line10545"
   style="display:inline;fill:none;stroke:#505050;stroke-width:2;stroke-linejoin:round;stroke-miterlimit:10" />
	<line
   class="st4"
   x1="231"
   y1="232"
   x2="233"
   y2="232"
   id="line10547"
   style="display:inline;fill:none;stroke:#505050;stroke-width:2;stroke-linejoin:round;stroke-miterlimit:10" />
	<circle
   class="st4"
   cx="232"
   cy="232"
   r="10"
   id="circle10549"
   style="display:inline;fill:none;stroke:#505050;stroke-width:2;stroke-linejoin:round;stroke-miterlimit:10" />
	<circle
   class="st4"
   cx="232"
   cy="232"
   r="17"
   id="circle10551"
   style="display:inline;fill:none;stroke:#505050;stroke-width:2;stroke-linejoin:round;stroke-miterlimit:10" />
</g>
<g
   class="st0"
   id="g10571"
   style="display:none"
   transform="translate(0,1716)">
	<line
   class="st1"
   x1="301"
   y1="219"
   x2="309"
   y2="227"
   id="line10555"
   style="display:inline;fill:none;stroke:#505050;stroke-width:2;stroke-miterlimit:10" />
	<line
   class="st1"
   x1="301"
   y1="227"
   x2="309"
   y2="219"
   id="line10557"
   style="display:inline;fill:none;stroke:#505050;stroke-width:2;stroke-miterlimit:10" />
	<circle
   class="st1"
   cx="318"
   cy="238"
   r="4"
   id="circle10559"
   style="display:inline;fill:none;stroke:#505050;stroke-width:2;stroke-miterlimit:10" />
	<path
   class="st1"
   d="m 305,243 v -5.16 c 0,-2.34 1.36,-4.47 3.49,-5.45 l 6.03,-2.78 c 2.12,-0.98 3.49,-3.11 3.49,-5.45 V 219"
   id="path10561"
   inkscape:connector-curvature="0"
   style="display:inline;fill:none;stroke:#505050;stroke-width:2;stroke-miterlimit:10" />
	<polyline
   class="st1"
   points="322,223 318,219 314,223  "
   id="polyline10563"
   style="display:inline;fill:none;stroke:#505050;stroke-width:2;stroke-miterlimit:10" />
	<path
   class="st1"
   d="m 329,216 h 6 v -1 c 0,-2.21 -1.79,-4 -4,-4 v 0"
   id="path10565"
   inkscape:connector-curvature="0"
   style="display:inline;fill:none;stroke:#505050;stroke-width:2;stroke-miterlimit:10" />
	<path
   class="st1"
   d="m 319,248 h -28 c 0.66,2.5 3,5 5,5 h 27 c -2,0 -3.51,-2.5 -4,-5 z"
   id="path10567"
   inkscape:connector-curvature="0"
   style="display:inline;fill:none;stroke:#505050;stroke-width:2;stroke-miterlimit:10" />
	<path
   class="st1"
   d="m 297,248 v -33 c 0,-2.21 1.79,-4 4,-4 h 30 v 0 c -2.38,0 -4,1.72 -4,4.13 V 249 c 0,2.4 -1.62,4 -4,4 h -1"
   id="path10569"
   inkscape:connector-curvature="0"
   style="display:inline;fill:none;stroke:#505050;stroke-width:2;stroke-miterlimit:10" />
</g>
<g
   class="st0"
   id="g10589"
   style="display:none"
   transform="translate(0,1716)">
	<path
   class="st4"
   d="M 391.73,229.07 C 391.49,229.03 391.25,229 391,229 c -2.21,0 -4,1.79 -4,4 0,2.21 1.79,4 4,4 2.21,0 4,-1.79 4,-4 0,-0.25 -0.02,-0.49 -0.07,-0.73"
   id="path10573"
   inkscape:connector-curvature="0"
   style="display:inline;fill:none;stroke:#505050;stroke-width:2;stroke-linejoin:round;stroke-miterlimit:10" />
	<path
   class="st4"
   d="m 396,224.34 c -1.47,-0.85 -3.18,-1.34 -5,-1.34 -5.52,0 -10,4.48 -10,10 0,5.52 4.48,10 10,10 5.52,0 10,-4.48 10,-10 0,-1.82 -0.49,-3.53 -1.34,-5"
   id="path10575"
   inkscape:connector-curvature="0"
   style="display:inline;fill:none;stroke:#505050;stroke-width:2;stroke-linejoin:round;stroke-miterlimit:10" />
	<path
   class="st4"
   d="m 400.33,220 c -2.63,-1.89 -5.85,-3 -9.33,-3 -8.84,0 -16,7.16 -16,16 0,8.84 7.16,16 16,16 8.84,0 16,-7.16 16,-16 0,-3.48 -1.11,-6.7 -3,-9.33"
   id="path10577"
   inkscape:connector-curvature="0"
   style="display:inline;fill:none;stroke:#505050;stroke-width:2;stroke-linejoin:round;stroke-miterlimit:10" />
	<polyline
   class="st4"
   points="404,246 407,253 403,253 400,250  "
   id="polyline10579"
   style="display:inline;fill:none;stroke:#505050;stroke-width:2;stroke-linejoin:round;stroke-miterlimit:10" />
	<polyline
   class="st4"
   points="378,246 375,253 379,253 382,250  "
   id="polyline10581"
   style="display:inline;fill:none;stroke:#505050;stroke-width:2;stroke-linejoin:round;stroke-miterlimit:10" />
	<line
   class="st3"
   x1="404"
   y1="220"
   x2="391"
   y2="233"
   id="line10583"
   style="display:inline;fill:none;stroke:#505050;stroke-width:2;stroke-linecap:round;stroke-linejoin:round;stroke-miterlimit:10" />
	<polygon
   class="st3"
   points="404,220 404,215 409,210 410,214 414,215 409,220 "
   id="polygon10585"
   style="display:inline;fill:none;stroke:#505050;stroke-width:2;stroke-linecap:round;stroke-linejoin:round;stroke-miterlimit:10" />
	<line
   class="st3"
   x1="410"
   y1="214"
   x2="413"
   y2="211"
   id="line10587"
   style="display:inline;fill:none;stroke:#505050;stroke-width:2;stroke-linecap:round;stroke-linejoin:round;stroke-miterlimit:10" />
</g>
<g
   class="st0"
   id="g10607"
   style="display:none"
   transform="translate(0,1716)">
	<path
   class="st4"
   d="m 415,295 h -46 v -3 c 0,-1.1 0.9,-2 2,-2 h 42 c 1.1,0 2,0.9 2,2 z"
   id="path10591"
   inkscape:connector-curvature="0"
   style="display:inline;fill:none;stroke:#505050;stroke-width:2;stroke-linejoin:round;stroke-miterlimit:10" />
	<polyline
   class="st4"
   points="413,295 413,329 371,329 371,295  "
   id="polyline10593"
   style="display:inline;fill:none;stroke:#505050;stroke-width:2;stroke-linejoin:round;stroke-miterlimit:10" />
	<circle
   class="st4"
   cx="386"
   cy="319"
   r="4"
   id="circle10595"
   style="display:inline;fill:none;stroke:#505050;stroke-width:2;stroke-linejoin:round;stroke-miterlimit:10" />
	<rect
   x="394"
   y="315"
   class="st4"
   width="8"
   height="8"
   id="rect10597"
   style="display:inline;fill:none;stroke:#505050;stroke-width:2;stroke-linejoin:round;stroke-miterlimit:10" />
	<polygon
   class="st4"
   points="387,307 397,307 392,299 "
   id="polygon10599"
   style="display:inline;fill:none;stroke:#505050;stroke-width:2;stroke-linejoin:round;stroke-miterlimit:10" />
	<line
   class="st4"
   x1="392"
   y1="307"
   x2="392"
   y2="311"
   id="line10601"
   style="display:inline;fill:none;stroke:#505050;stroke-width:2;stroke-linejoin:round;stroke-miterlimit:10" />
	<polyline
   class="st4"
   points="398,315 398,311 386,311 386,315  "
   id="polyline10603"
   style="display:inline;fill:none;stroke:#505050;stroke-width:2;stroke-linejoin:round;stroke-miterlimit:10" />
	<line
   class="st4"
   x1="392"
   y1="329"
   x2="392"
   y2="333"
   id="line10605"
   style="display:inline;fill:none;stroke:#505050;stroke-width:2;stroke-linejoin:round;stroke-miterlimit:10" />
</g>
<g
   class="st0"
   id="g10625"
   style="display:none"
   transform="translate(0,1716)">
	<path
   class="st4"
   d="m 300.79,299.25 c 2.32,3.54 7.32,4.37 7.32,4.37 0,0 1.23,-4.92 -1.09,-8.46 -2.32,-3.54 -6.77,-3.53 -6.77,-3.53 0,0 -1.78,4.07 0.54,7.62 z"
   id="path10609"
   inkscape:connector-curvature="0"
   style="display:inline;fill:none;stroke:#505050;stroke-width:2;stroke-linejoin:round;stroke-miterlimit:10" />
	<path
   class="st3"
   d="m 308.02,307 c -0.46,-3.27 0.99,-8.03 4.52,-11.79"
   id="path10611"
   inkscape:connector-curvature="0"
   style="display:inline;fill:none;stroke:#505050;stroke-width:2;stroke-linecap:round;stroke-linejoin:round;stroke-miterlimit:10" />
	<line
   class="st3"
   x1="324"
   y1="303"
   x2="311"
   y2="316"
   id="line10613"
   style="display:inline;fill:none;stroke:#505050;stroke-width:2;stroke-linecap:round;stroke-linejoin:round;stroke-miterlimit:10" />
	<path
   class="st3"
   d="m 312.34,318.68 c -0.4,0.2 -0.86,0.32 -1.34,0.32 -1.66,0 -3,-1.34 -3,-3 0,-0.25 0.03,-0.49 0.09,-0.73"
   id="path10615"
   inkscape:connector-curvature="0"
   style="display:inline;fill:none;stroke:#505050;stroke-width:2;stroke-linecap:round;stroke-linejoin:round;stroke-miterlimit:10" />
	<polygon
   class="st3"
   points="324,303 324,298 330,292 330,297 335,297 330,303 "
   id="polygon10617"
   style="display:inline;fill:none;stroke:#505050;stroke-width:2;stroke-linecap:round;stroke-linejoin:round;stroke-miterlimit:10" />
	<line
   class="st3"
   x1="330"
   y1="297"
   x2="334"
   y2="293"
   id="line10619"
   style="display:inline;fill:none;stroke:#505050;stroke-width:2;stroke-linecap:round;stroke-linejoin:round;stroke-miterlimit:10" />
	<path
   class="st3"
   d="m 315.97,305.64 c -3.16,-0.44 -5.98,1.36 -7.8,1.36 -1.93,0 -2.97,-0.98 -5.99,-1.66 -2.74,-0.62 -5.59,0.32 -7.42,1.85 -3.39,2.84 -6.37,7.85 -3.76,16.56 1.75,5.84 6.04,11.09 11,11.16 0.78,0.01 2.9,-0.32 3.8,-0.57 0.85,-0.23 2.07,-0.3 2.81,0.02 1.47,0.64 3.21,0.67 4.24,0.44 4.85,-1.05 9.34,-5.25 11.09,-11.09 2.1,-7.03 0.83,-11.43 -1.55,-14.22"
   id="path10621"
   inkscape:connector-curvature="0"
   style="display:inline;fill:none;stroke:#505050;stroke-width:2;stroke-linecap:round;stroke-linejoin:round;stroke-miterlimit:10" />
	<path
   class="st3"
   d="m 299.6,309 c -0.7,0.27 -1.34,0.64 -1.87,1.08 -1.96,1.61 -3.74,4.12 -3.73,8.01"
   id="path10623"
   inkscape:connector-curvature="0"
   style="display:inline;fill:none;stroke:#505050;stroke-width:2;stroke-linecap:round;stroke-linejoin:round;stroke-miterlimit:10" />
</g>
<g
   class="st0"
   id="g10639"
   style="display:none"
   transform="translate(0,1716)">
	<path
   class="st1"
   d="m 229,327 v -2 c 0,0 3,-2.25 3,-5 v -3"
   id="path10627"
   inkscape:connector-curvature="0"
   style="display:inline;fill:none;stroke:#505050;stroke-width:2;stroke-miterlimit:10" />
	<path
   class="st1"
   d="m 221,303 -5,5 c -1.41,1.3 -2,2.04 -2,4 v 6.79 8.21"
   id="path10629"
   inkscape:connector-curvature="0"
   style="display:inline;fill:none;stroke:#505050;stroke-width:2;stroke-miterlimit:10" />
	<path
   class="st1"
   d="m 218,315 c 0,0 6.16,-6.16 8,-8 1.84,-1.84 4.71,2.75 2.51,5.49 -1.08,1.08 -2.51,2.51 -2.51,2.51 0,0.45 0,2.61 0,3 0,3.92 -3.41,4 -4,4"
   id="path10631"
   inkscape:connector-curvature="0"
   style="display:inline;fill:none;stroke:#505050;stroke-width:2;stroke-miterlimit:10" />
	<rect
   x="212"
   y="327"
   class="st4"
   width="20"
   height="8"
   id="rect10633"
   style="display:inline;fill:none;stroke:#505050;stroke-width:2;stroke-linejoin:round;stroke-miterlimit:10" />
	<line
   class="st4"
   x1="229"
   y1="331"
   x2="227"
   y2="331"
   id="line10635"
   style="display:inline;fill:none;stroke:#505050;stroke-width:2;stroke-linejoin:round;stroke-miterlimit:10" />
	<path
   class="st4"
   d="m 226,317 h 17 c 1.1,0 2,-0.9 2,-2 0,0 0,-4.24 0,-9.01 0,-1.27 1.36,-1.17 1.75,-0.66 0.75,1 1.91,1.67 3.25,1.67 2.21,0 4,-1.79 4,-4 0,-2.21 -1.79,-4 -4,-4 -1.34,0 -2.5,0.68 -3.25,1.67 -0.39,0.52 -1.75,0.61 -1.75,-0.66 v -8.02 c 0,-1.1 -0.9,-1.99 -2,-1.99 h -7 c -1.27,0 -1.19,1.36 -0.67,1.75 1,0.75 1.67,1.91 1.67,3.25 0,2.21 -1.79,4 -4,4 -2.21,0 -4,-1.79 -4,-4 0,-1.34 0.68,-2.5 1.67,-3.25 0.52,-0.39 0.59,-1.75 -0.67,-1.75 -1,0 -7,0 -7,0 -1.1,0 -2,0.9 -2,2 v 20"
   id="path10637"
   inkscape:connector-curvature="0"
   style="display:inline;fill:none;stroke:#505050;stroke-width:2;stroke-linejoin:round;stroke-miterlimit:10" />
</g>
<g
   id="g10663"
   transform="matrix(4.3237695,0,0,4.3237695,11.094797,225.52398)">
	<path
   class="st7"
   d="m 123.74,220.68 c -16.15,0 -33.22,-17.05 -33.22,-33.18 v -41.48 c 0,-27.4 8.3,-41.48 41.52,-41.48 h 132.87 c 0,0 8.3,33.18 -24.91,33.18 -16.61,0 -49.83,0 -49.83,0 v 58.05 l 33.22,41.46 v 41.51"
   id="path10641"
   inkscape:connector-curvature="0"
   style="fill:none;stroke:#735bbf;stroke-width:16.59980011;stroke-miterlimit:10" />
	<path
   class="st7"
   d="m 156.96,79.66 c 14.52,0 24.91,-10.84 24.91,-26.55 V 39.84 c 0,-15.71 -10.4,-26.55 -24.91,-26.55 -14.52,0 -24.91,10.84 -24.91,26.55 v 13.27 c -0.01,15.71 10.39,26.55 24.91,26.55 z"
   id="path10643"
   inkscape:connector-curvature="0"
   style="fill:none;stroke:#735bbf;stroke-width:16.59980011;stroke-miterlimit:10" />
	<line
   class="st7"
   x1="123.74"
   y1="137.73"
   x2="123.74"
   y2="328.51999"
   id="line10645"
   style="fill:none;stroke:#735bbf;stroke-width:16.59980011;stroke-miterlimit:10" />
	<polyline
   class="st7"
   points="156.96,328.52 156.96,220.68 165.26,220.68 190.17,253.86 190.17,295.34  "
   id="polyline10647"
   style="fill:none;stroke:#735bbf;stroke-width:16.59980011;stroke-miterlimit:10" />
	<line
   class="st7"
   x1="256.60999"
   y1="5"
   x2="256.60999"
   y2="104.55"
   id="line10649"
   style="fill:none;stroke:#735bbf;stroke-width:16.59980011;stroke-miterlimit:10" />
	<line
   class="st7"
   x1="256.60999"
   y1="137.73"
   x2="256.60999"
   y2="253.86"
   id="line10651"
   style="fill:none;stroke:#735bbf;stroke-width:16.59980011;stroke-miterlimit:10" />
	<line
   class="st7"
   x1="323.04001"
   y1="71.360001"
   x2="256.60999"
   y2="71.360001"
   id="line10653"
   style="fill:none;stroke:#735bbf;stroke-width:16.59980011;stroke-miterlimit:10" />
	<polyline
   class="st7"
   points="256.61,21.59 323.04,21.59 323.04,38.16  "
   id="polyline10655"
   style="fill:none;stroke:#735bbf;stroke-width:16.59980011;stroke-miterlimit:10" />
	<rect
   x="323.04001"
   y="38.18"
   class="st7"
   width="66.43"
   height="49.77"
   id="rect10657"
   style="fill:none;stroke:#735bbf;stroke-width:16.59980011;stroke-miterlimit:10" />
	<polyline
   class="st8"
   points="49,370 98.83,328.52 165.26,328.52 190.17,295.34 223.39,278.75 256.61,253.86 298.13,287.05  "
   id="polyline10659"
   style="fill:none;stroke:#5e4d8e;stroke-width:16.59980011;stroke-miterlimit:10" />
	<polyline
   class="st8"
   points="223.39,361.7 256.61,328.52 298.13,328.52 331.35,287.05 339.65,287.05 364.57,311.93 397.78,311.93    431,345.11  "
   id="polyline10661"
   style="fill:none;stroke:#5e4d8e;stroke-width:16.59980011;stroke-miterlimit:10" />
</g>
<g
   class="st0"
   id="g10679"
   style="display:none"
   transform="translate(0,1716)">
	<path
   class="st1"
   d="m 61,329 v -3 c 0,-1.1 0.9,-2 2,-2 h 7"
   id="path10665"
   inkscape:connector-curvature="0"
   style="display:inline;fill:none;stroke:#505050;stroke-width:2;stroke-miterlimit:10" />
	<path
   class="st1"
   d="m 76,324 h 4 c 1.1,0 2,0.9 2,2 v 3"
   id="path10667"
   inkscape:connector-curvature="0"
   style="display:inline;fill:none;stroke:#505050;stroke-width:2;stroke-miterlimit:10" />
	<path
   class="st1"
   d="M 72,329 H 60 c -1.1,0 -2,0.89 -2,2 v 4 h 27 v -4 c 0,-1.1 -0.9,-2 -2,-2 h -5"
   id="path10669"
   inkscape:connector-curvature="0"
   style="display:inline;fill:none;stroke:#505050;stroke-width:2;stroke-miterlimit:10" />
	<polyline
   class="st1"
   points="76,305 76,310 82,316 79,319 79,324  "
   id="polyline10671"
   style="display:inline;fill:none;stroke:#505050;stroke-width:2;stroke-miterlimit:10" />
	<path
   class="st1"
   d="m 78,295 7,7 v 2.96 l -3,3.04 -3,-3 h -5 c -1.91,0 -4,-1.09 -4,-3 v -1"
   id="path10673"
   inkscape:connector-curvature="0"
   style="display:inline;fill:none;stroke:#505050;stroke-width:2;stroke-miterlimit:10" />
	<path
   class="st1"
   d="m 64,324 v -10 l -3,-3 v -9 c 0,-7.88 6.8,-12 13,-12 2.6,0 6.35,1.36 8,3 l -3,3"
   id="path10675"
   inkscape:connector-curvature="0"
   style="display:inline;fill:none;stroke:#505050;stroke-width:2;stroke-miterlimit:10" />
	<path
   class="st1"
   d="m 73,293 c -4.97,0 -9,4.03 -9,9 v 2"
   id="path10677"
   inkscape:connector-curvature="0"
   style="display:inline;fill:none;stroke:#505050;stroke-width:2;stroke-miterlimit:10" />
</g>
<g
   class="st0"
   id="g10689"
   style="display:none"
   transform="translate(0,1716)">
	<path
   class="st4"
   d="m 226,175 v -7 c -0.38,0.53 -1.23,1 -2,1 -1.66,0 -3,-1.34 -3,-3 0,-1.66 1.34,-3 3,-3 0.77,0 1.61,0.45 2,1 v -6"
   id="path10681"
   inkscape:connector-curvature="0"
   style="display:inline;fill:none;stroke:#505050;stroke-width:2;stroke-linejoin:round;stroke-miterlimit:10" />
	<path
   class="st4"
   d="m 210,158 h 6 c -0.58,-0.45 -1,-1.23 -1,-2 0,-1.66 1.34,-3 3,-3 1.66,0 3,1.34 3,3 0,0.77 -0.42,1.52 -1,2 h 6"
   id="path10683"
   inkscape:connector-curvature="0"
   style="display:inline;fill:none;stroke:#505050;stroke-width:2;stroke-linejoin:round;stroke-miterlimit:10" />
	<path
   class="st4"
   d="m 226,158 h 6 c -0.55,1 -1,1.23 -1,2 0,1.66 1.34,3 3,3 1.66,0 3,-1.34 3,-3 0,-0.77 -0.46,-1.5 -1,-2 h 6 v 17 h -32 v -33 h 6 c -0.58,-0.45 -1,-1.23 -1,-2 0,-1.66 1.34,-3 3,-3 1.66,0 3,1.34 3,3 0,0.77 -0.42,1.52 -1,2 h 6 v 6 c 0.84,-0.89 1.92,-1.36 3.23,-0.67 1.03,0.54 1.79,1.57 1.77,2.73 -0.03,1.63 -1.36,2.94 -3,2.94 -0.77,0 -1.53,-0.38 -2,-1 v 6"
   id="path10685"
   inkscape:connector-curvature="0"
   style="display:inline;fill:none;stroke:#505050;stroke-width:2;stroke-linejoin:round;stroke-miterlimit:10" />
	<path
   class="st4"
   d="m 243.31,129.37 4.24,4.24 c -0.09,-0.73 0.16,-1.58 0.71,-2.12 1.17,-1.17 3.07,-1.17 4.24,0 1.17,1.17 1.17,3.07 0,4.24 -0.55,0.55 -1.37,0.77 -2.12,0.71 l 4.24,4.24 -4.24,4.24 c 1.22,-0.03 2.31,0.39 2.76,1.81 0.35,1.11 0.16,2.38 -0.68,3.18 -1.17,1.13 -3.04,1.12 -4.2,-0.04 -0.55,-0.55 -0.82,-1.35 -0.71,-2.12 l -4.24,4.24 -4.24,-4.24 c 0.75,0.07 1.58,-0.16 2.12,-0.71 1.17,-1.17 1.17,-3.07 0,-4.24 -1.17,-1.17 -3.07,-1.17 -4.24,0 -0.55,0.55 -0.8,1.39 -0.71,2.12 L 232,140.68 Z"
   id="path10687"
   inkscape:connector-curvature="0"
   style="display:inline;fill:none;stroke:#505050;stroke-width:2;stroke-linejoin:round;stroke-miterlimit:10" />
</g>
<g
   class="st0"
   id="g10709"
   style="display:none"
   transform="translate(0,1716)">
	<path
   class="st1"
   d="m 162,255 v -4 c 0,-1.1 -0.9,-2 -2,-2 h -1 v -3 c 0,-0.55 -0.45,-1 -1,-1 h -1 v -10 l 4,-4 v -9 h -4 v 3 h -4 v -3 h -4 v 3 h -4 v -3 h -4 v 9 l 4,4 v 10 h -1 c -0.55,0 -1,0.45 -1,1 v 3 h -1 c -1.1,0 -2,0.9 -2,2 v 4 z"
   id="path10691"
   inkscape:connector-curvature="0"
   style="display:inline;fill:none;stroke:#505050;stroke-width:2;stroke-miterlimit:10" />
	<line
   class="st1"
   x1="143"
   y1="249"
   x2="151"
   y2="249"
   id="line10693"
   style="display:inline;fill:none;stroke:#505050;stroke-width:2;stroke-miterlimit:10" />
	<line
   class="st1"
   x1="154"
   y1="249"
   x2="159"
   y2="249"
   id="line10695"
   style="display:inline;fill:none;stroke:#505050;stroke-width:2;stroke-miterlimit:10" />
	<line
   class="st1"
   x1="141"
   y1="230"
   x2="151"
   y2="230"
   id="line10697"
   style="display:inline;fill:none;stroke:#505050;stroke-width:2;stroke-miterlimit:10" />
	<line
   class="st1"
   x1="155"
   y1="230"
   x2="161"
   y2="230"
   id="line10699"
   style="display:inline;fill:none;stroke:#505050;stroke-width:2;stroke-miterlimit:10" />
	<path
   class="st1"
   d="m 151,216 1.24,0.31 c 1.75,0.45 3.6,0.34 5.28,-0.31 v 0 c 1.7,-0.65 3.55,-0.76 5.31,-0.3 L 164,216 v -6 l -1.2,-0.31 c -1.75,-0.45 -3.61,-0.34 -5.3,0.31 v 0 c -1.69,0.65 -3.54,0.76 -5.3,0.31 L 151,210"
   id="path10701"
   inkscape:connector-curvature="0"
   style="display:inline;fill:none;stroke:#505050;stroke-width:2;stroke-miterlimit:10" />
	<line
   class="st1"
   x1="151"
   y1="220"
   x2="151"
   y2="208"
   id="line10703"
   style="display:inline;fill:none;stroke:#505050;stroke-width:2;stroke-miterlimit:10" />
	<line
   class="st4"
   x1="157"
   y1="245"
   x2="154"
   y2="245"
   id="line10705"
   style="display:inline;fill:none;stroke:#505050;stroke-width:2;stroke-linejoin:round;stroke-miterlimit:10" />
	<line
   class="st4"
   x1="151"
   y1="245"
   x2="145"
   y2="245"
   id="line10707"
   style="display:inline;fill:none;stroke:#505050;stroke-width:2;stroke-linejoin:round;stroke-miterlimit:10" />
</g>
</svg>